<svg width="585.0010009765625px" height="125.6px" xmlns="http://www.w3.org/2000/svg" viewBox="-42.50050048828126 12.200000000000003 585.0010009765625 125.6" style="background: rgb(255, 255, 255);" preserveAspectRatio="xMidYMid"><defs><linearGradient id="editing-glowing-gradient" x1="0.8146601955249185" x2="0.18533980447508147" y1="0.8885729807284856" y2="0.11142701927151444"><stop offset="0" stop-color="#2bdec7"></stop><stop offset="1" stop-color="#c118b0"></stop></linearGradient><filter id="editing-glowing" x="-100%" y="-100%" width="300%" height="300%"><feGaussianBlur in="SourceGraphic" result="blur" stdDeviation="10"></feGaussianBlur><feMerge><feMergeNode in="blur"></feMergeNode><feMergeNode in="SourceGraphic"></feMergeNode></feMerge></filter></defs><g filter="url(#editing-glowing)"><g transform="translate(41.30846309661865, 100.17499923706055)"><path d="M31.50-28.38L31.50-28.38L30.22-28.41L30.22-28.41Q29.53-28.47 28.47-28.47L28.47-28.47L21.47-28.47L21.47 0L5.53 0L5.53-44.22L30.34-44.22L33.44-44.31L34-44.31L34-44.31Q36.34-44.31 36.34-42.94L36.34-42.94L36.34-42.94Q36.34-42.41 35.92-41.95L35.92-41.95L35.92-41.95Q35.50-41.50 35-41.50L35-41.50L35-41.50Q34.19-41.50 33.44-41.66L33.44-41.66L33.44-41.66Q32-41.97 29.69-41.97L29.69-41.97L21.47-41.97L21.47-30.72L27.75-30.72L27.75-30.72Q27.75-30.72 31.63-30.88L31.63-30.88L31.63-30.88Q33.31-30.88 33.31-29.63L33.31-29.63L33.31-29.63Q33.31-28.38 31.50-28.38ZM41.59 0L41.59-44.22L55.03-44.22L55.03 0L41.59 0ZM86.16 0L86.16-2.06L86.16-2.06Q82.16 0.59 77.28 0.59L77.28 0.59L77.28 0.59Q70.81 0.59 66.91-2.66L66.91-2.66L66.91-2.66Q62.84-6 62.84-11.94L62.84-11.94L62.84-11.94Q62.84-17.19 66.88-20.56L66.88-20.56L66.88-20.56Q71-23.97 77.72-23.97L77.72-23.97L77.72-23.97Q82.22-23.97 86.16-22.25L86.16-22.25L86.16-30.84L86.16-30.84Q83.31-31.66 81.14-31.66L81.14-31.66L81.14-31.66Q78.97-31.66 77.47-31.47L77.47-31.47L77.47-31.47Q75.97-31.28 74.63-30.91L74.63-30.91L74.63-30.91Q71.72-30.09 70.22-28.72L70.22-28.72L70.22-28.72Q69.34-27.91 68.63-27.91L68.63-27.91L68.63-27.91Q67.91-27.91 67.53-28.27L67.53-28.27L67.53-28.27Q67.16-28.63 67.16-29.06L67.16-29.06L67.16-29.06Q67.16-29.50 67.31-29.86L67.31-29.86L67.31-29.86Q67.47-30.22 67.91-30.59L67.91-30.59L67.91-30.59Q68.84-31.41 71.03-32.22L71.03-32.22L71.03-32.22Q75.56-33.94 80.13-33.94L80.13-33.94L80.13-33.94Q94-33.94 97.84-27.31L97.84-27.31L97.84-27.31Q99.53-24.38 99.53-19.59L99.53-19.59L99.53 0L86.16 0ZM86.16-4.75L86.16-19.81L86.16-19.81Q82.22-21.72 78.31-21.72L78.31-21.72L78.31-21.72Q77.69-21.72 77.13-21.63L77.13-21.63L77.13-1.75L77.13-1.75Q77.28-1.72 77.47-1.72L77.47-1.72L77.47-1.72Q77.66-1.72 77.84-1.72L77.84-1.72L77.84-1.72Q82.13-1.72 86.16-4.75L86.16-4.75ZM121.19 1.41L104.03-33.38L118.19-33.38L126.69-15.84L132.03-26.47L132.03-26.47Q133.69-29.88 134.11-31.53L134.11-31.53L134.11-31.53Q134.53-33.19 134.95-33.56L134.95-33.56L134.95-33.56Q135.38-33.94 135.98-33.94L135.98-33.94L135.98-33.94Q136.59-33.94 136.94-33.53L136.94-33.53L136.94-33.53Q137.28-33.13 137.28-32.72L137.28-32.72L137.28-32.72Q137.28-32.31 137.20-31.91L137.20-31.91L137.20-31.91Q137.13-31.50 136.91-30.81L136.91-30.81L136.91-30.81Q136.44-29.53 134.94-26.38L134.94-26.38L121.19 1.41ZM139.84-16.88L139.84-16.88L139.84-16.88Q139.84-20.63 141.20-23.70L141.20-23.70L141.20-23.70Q142.56-26.78 144.94-29.06L144.94-29.06L144.94-29.06Q150.06-33.94 157.81-33.94L157.81-33.94L157.81-33.94Q165.72-33.94 170.69-28.88L170.69-28.88L170.69-28.88Q175.44-24.09 175.44-16.78L175.44-16.78L175.44-16.78Q175.44-9.44 170.56-4.50L170.56-4.50L170.56-4.50Q165.53 0.59 157.69 0.59L157.69 0.59L157.69 0.59Q150.03 0.59 145-4.25L145-4.25L145-4.25Q139.84-9.25 139.84-16.88ZM156.81-31.63L156.81-1.75L156.81-1.75Q157.06-1.72 157.31-1.72L157.31-1.72L157.75-1.72L157.75-1.72Q164.06-1.72 168.34-5.63L168.34-5.63L168.34-5.63Q172.91-9.84 172.91-16.69L172.91-16.69L172.91-16.69Q172.91-23.38 168.63-27.53L168.63-27.53L168.63-27.53Q164.41-31.66 157.72-31.66L157.72-31.66L157.25-31.66L157.25-31.66Q157.03-31.66 156.81-31.63L156.81-31.63ZM183.44 0L183.44-33.38L196.88-33.38L196.88-23.56L196.88-23.56Q199.03-28.91 201.52-31.42L201.52-31.42L201.52-31.42Q204-33.94 206.50-33.94L206.50-33.94L206.50-33.94Q207.91-33.94 208.73-33.20L208.73-33.20L208.73-33.20Q209.56-32.47 209.56-31.56L209.56-31.56L209.56-31.56Q209.56-30.66 209.31-30.13L209.31-30.13L209.31-30.13Q209.06-29.59 208.66-29.22L208.66-29.22L208.66-29.22Q207.81-28.44 207.06-28.44L207.06-28.44L207.06-28.44Q205.88-28.44 205.31-28.69L205.31-28.69L205.31-28.69Q204.34-29.13 203.59-29.13L203.59-29.13L203.59-29.13Q202.84-29.13 201.69-27.92L201.69-27.92L201.69-27.92Q200.53-26.72 199.47-24.59L199.47-24.59L199.47-24.59Q196.88-19.41 196.88-13.34L196.88-13.34L196.88 0L183.44 0ZM227.97 0L227.97-44.22L240.97-44.22L240.97-44.22Q250.06-44.22 254.31-42.94L254.31-42.94L254.31-42.94Q259.16-41.44 261.80-39.09L261.80-39.09L261.80-39.09Q264.44-36.75 265.94-34.25L265.94-34.25L265.94-34.25Q269-29.16 269-22.69L269-22.69L269-22.69Q269-12.50 261.69-6.19L261.69-6.19L261.69-6.19Q256.50-1.66 249.47-0.59L249.47-0.59L249.47-0.59Q245.56 0 238.53 0L238.53 0L227.97 0ZM243.91-41.84L243.91-2.59L243.91-2.59Q244.41-2.56 244.81-2.56L244.81-2.56L245.53-2.56L245.53-2.56Q254-2.56 260-7.84L260-7.84L260-7.84Q266.34-13.41 266.34-22.63L266.34-22.63L266.34-22.63Q266.34-28.44 263.56-33.09L263.56-33.09L263.56-33.09Q259.53-39.88 250.81-41.31L250.81-41.31L250.81-41.31Q247.97-41.78 243.91-41.84L243.91-41.84ZM283.72-38.84L283.72-38.84L283.72-38.84Q280.50-38.84 278.69-40.28L278.69-40.28L278.69-40.28Q276.88-41.72 276.88-44.06L276.88-44.06L276.88-44.06Q276.88-46.03 278.88-47.44L278.88-47.44L278.88-47.44Q281-48.94 283.38-48.94L283.38-48.94L283.38-48.94Q285.75-48.94 287.05-48.47L287.05-48.47L287.05-48.47Q288.34-48 289.25-47.25L289.25-47.25L289.25-47.25Q291.06-45.72 291.06-43.69L291.06-43.69L291.06-43.69Q291.06-41.66 289-40.25L289-40.25L289-40.25Q286.94-38.84 283.72-38.84ZM277.16 0L277.16-33.38L290.59-33.38L290.59 0L277.16 0ZM323.94 0L323.94-29.97L323.94-29.97Q323.16-30.47 322.25-30.47L322.25-30.47L322.25-30.47Q321.34-30.47 320.38-30.05L320.38-30.05L320.38-30.05Q319.41-29.63 318.34-28.88L318.34-28.88L318.34-28.88Q316.13-27.28 314.25-24.63L314.25-24.63L314.25 0L300.81 0L300.81-33.38L314.25-33.38L314.25-28.03L314.25-28.03Q319.59-33.94 326.34-33.94L326.34-33.94L326.34-33.94Q337.38-33.94 337.38-23.25L337.38-23.25L337.38 0L323.94 0ZM376.59-7.59L376.59-7.59L376.59-7.59Q377.81-7.59 377.81-6.47L377.81-6.47L377.81-6.47Q377.81-5.63 376.72-4.47L376.72-4.47L376.72-4.47Q371.78 0.59 363.19 0.59L363.19 0.59L363.19 0.59Q355.47 0.59 350.19-4.06L350.19-4.06L350.19-4.06Q344.72-8.91 344.72-16.31L344.72-16.31L344.72-16.31Q344.72-23.88 349.66-28.75L349.66-28.75L349.66-28.75Q354.88-33.94 363.53-33.94L363.53-33.94L363.53-33.94Q370.47-33.94 375.19-29.72L375.19-29.72L375.19-29.72Q380.28-25.19 380.28-17.81L380.28-17.81L380.28-17.81Q380.28-16.75 380.22-15.56L380.22-15.56L359.59-15.56L359.59-2.16L359.59-2.16Q361.72-1.72 364.38-1.72L364.38-1.72L364.38-1.72Q370-1.72 373.97-5.44L373.97-5.44L373.97-5.44Q374.78-6.25 375.13-6.72L375.13-6.72L375.13-6.72Q375.84-7.59 376.59-7.59ZM368.25-17.84L368.25-31.06L368.25-31.06Q366.22-31.66 363.66-31.66L363.66-31.66L363.66-31.66Q361.09-31.66 359.59-31.31L359.59-31.31L359.59-17.84L368.25-17.84ZM388.22 0L388.22-33.38L401.66-33.38L401.66-23.56L401.66-23.56Q403.81-28.91 406.30-31.42L406.30-31.42L406.30-31.42Q408.78-33.94 411.28-33.94L411.28-33.94L411.28-33.94Q412.69-33.94 413.52-33.20L413.52-33.20L413.52-33.20Q414.34-32.47 414.34-31.56L414.34-31.56L414.34-31.56Q414.34-30.66 414.09-30.13L414.09-30.13L414.09-30.13Q413.84-29.59 413.44-29.22L413.44-29.22L413.44-29.22Q412.59-28.44 411.84-28.44L411.84-28.44L411.84-28.44Q410.66-28.44 410.09-28.69L410.09-28.69L410.09-28.69Q409.13-29.13 408.38-29.13L408.38-29.13L408.38-29.13Q407.63-29.13 406.47-27.92L406.47-27.92L406.47-27.92Q405.31-26.72 404.25-24.59L404.25-24.59L404.25-24.59Q401.66-19.41 401.66-13.34L401.66-13.34L401.66 0L388.22 0Z" fill="url(#editing-glowing-gradient)"></path></g></g><style>text {
  font-size: 64px;
  font-family: Arial Black;
  dominant-baseline: central;
  text-anchor: middle;
}</style></svg>