<svg width="1068.3891845703124px" height="216.79999999999998px" xmlns="http://www.w3.org/2000/svg" viewBox="-284.1945922851562 -33.39999999999999 1068.3891845703124 216.79999999999998" style="background: rgba(0, 0, 0, 0);" preserveAspectRatio="xMidYMid"><defs><filter id="editing-hole" x="-100%" y="-100%" width="300%" height="300%"><feFlood flood-color="#000000" result="black"></feFlood><feMorphology operator="dilate" radius="2" in="SourceGraphic" result="erode"></feMorphology><feGaussianBlur in="erode" stdDeviation="4" result="blur"></feGaussianBlur><feOffset in="blur" dx="2" dy="2" result="offset"></feOffset><feComposite operator="atop" in="offset" in2="black" result="merge"></feComposite><feComposite operator="in" in="merge" in2="SourceGraphic" result="inner-shadow"></feComposite></filter></defs><g filter="url(#editing-hole)"><g transform="translate(-138.82594394683838, 121.80000162124634)"><path d="M58.57-52.76L58.57-52.76L56.19-52.82L56.19-52.82Q54.91-52.93 52.93-52.93L52.93-52.93L39.92-52.93L39.92 0L10.28 0L10.28-82.22L56.42-82.22L62.17-82.39L63.22-82.39L63.22-82.39Q67.58-82.39 67.58-79.84L67.58-79.84L67.58-79.84Q67.58-78.85 66.79-78.01L66.79-78.01L66.79-78.01Q66.01-77.16 65.08-77.16L65.08-77.16L65.08-77.16Q63.57-77.16 62.17-77.45L62.17-77.45L62.17-77.45Q59.50-78.04 55.20-78.04L55.20-78.04L39.92-78.04L39.92-57.12L51.60-57.12L51.60-57.12Q51.60-57.12 58.80-57.41L58.80-57.41L58.80-57.41Q61.94-57.41 61.94-55.08L61.94-55.08L61.94-55.08Q61.94-52.76 58.57-52.76ZM77.34 0L77.34-82.22L102.32-82.22L102.32 0L77.34 0ZM160.20 0L160.20-3.83L160.20-3.83Q152.76 1.10 143.69 1.10L143.69 1.10L143.69 1.10Q131.67 1.10 124.40-4.94L124.40-4.94L124.40-4.94Q116.85-11.16 116.85-22.20L116.85-22.20L116.85-22.20Q116.85-31.96 124.35-38.23L124.35-38.23L124.35-38.23Q132.02-44.57 144.51-44.57L144.51-44.57L144.51-44.57Q152.88-44.57 160.20-41.37L160.20-41.37L160.20-57.35L160.20-57.35Q154.91-58.86 150.87-58.86L150.87-58.86L150.87-58.86Q146.83-58.86 144.04-58.51L144.04-58.51L144.04-58.51Q141.25-58.16 138.76-57.47L138.76-57.47L138.76-57.47Q133.35-55.96 130.56-53.40L130.56-53.40L130.56-53.40Q128.94-51.89 127.60-51.89L127.60-51.89L127.60-51.89Q126.26-51.89 125.57-52.56L125.57-52.56L125.57-52.56Q124.87-53.22 124.87-54.04L124.87-54.04L124.87-54.04Q124.87-54.85 125.16-55.52L125.16-55.52L125.16-55.52Q125.45-56.19 126.26-56.89L126.26-56.89L126.26-56.89Q128.01-58.40 132.07-59.91L132.07-59.91L132.07-59.91Q140.50-63.10 148.98-63.10L148.98-63.10L148.98-63.10Q174.78-63.10 181.93-50.78L181.93-50.78L181.93-50.78Q185.07-45.32 185.07-36.43L185.07-36.43L185.07 0L160.20 0ZM160.20-8.83L160.20-36.84L160.20-36.84Q152.88-40.38 145.61-40.38L145.61-40.38L145.61-40.38Q144.45-40.38 143.40-40.21L143.40-40.21L143.40-3.25L143.40-3.25Q143.69-3.20 144.04-3.20L144.04-3.20L144.04-3.20Q144.39-3.20 144.74-3.20L144.74-3.20L144.74-3.20Q152.70-3.20 160.20-8.83L160.20-8.83ZM225.33 2.61L193.43-62.06L219.75-62.06L235.56-29.46L245.50-49.22L245.50-49.22Q248.58-55.55 249.36-58.63L249.36-58.63L249.36-58.63Q250.14-61.71 250.93-62.41L250.93-62.41L250.93-62.41Q251.71-63.10 252.85-63.10L252.85-63.10L252.85-63.10Q253.98-63.10 254.62-62.35L254.62-62.35L254.62-62.35Q255.26-61.59 255.26-60.84L255.26-60.84L255.26-60.84Q255.26-60.08 255.11-59.33L255.11-59.33L255.11-59.33Q254.97-58.57 254.56-57.29L254.56-57.29L254.56-57.29Q253.69-54.91 250.90-49.04L250.90-49.04L225.33 2.61ZM260.02-31.38L260.02-31.38L260.02-31.38Q260.02-38.35 262.55-44.07L262.55-44.07L262.55-44.07Q265.08-49.80 269.49-54.04L269.49-54.04L269.49-54.04Q279.02-63.10 293.43-63.10L293.43-63.10L293.43-63.10Q308.13-63.10 317.37-53.69L317.37-53.69L317.37-53.69Q326.20-44.80 326.20-31.20L326.20-31.20L326.20-31.20Q326.20-17.55 317.14-8.37L317.14-8.37L317.14-8.37Q307.78 1.10 293.20 1.10L293.20 1.10L293.20 1.10Q278.96 1.10 269.61-7.90L269.61-7.90L269.61-7.90Q260.02-17.20 260.02-31.38ZM291.57-58.80L291.57-3.25L291.57-3.25Q292.04-3.20 292.50-3.20L292.50-3.20L293.32-3.20L293.32-3.20Q305.05-3.20 313.01-10.46L313.01-10.46L313.01-10.46Q321.50-18.30 321.50-31.03L321.50-31.03L321.50-31.03Q321.50-43.46 313.54-51.19L313.54-51.19L313.54-51.19Q305.69-58.86 293.26-58.86L293.26-58.86L292.39-58.86L292.39-58.86Q291.98-58.86 291.57-58.80L291.57-58.80ZM341.08 0L341.08-62.06L366.06-62.06L366.06-43.81L366.06-43.81Q370.07-53.75 374.69-58.43L374.69-58.43L374.69-58.43Q379.31-63.10 383.96-63.10L383.96-63.10L383.96-63.10Q386.58-63.10 388.12-61.74L388.12-61.74L388.12-61.74Q389.66-60.37 389.66-58.69L389.66-58.69L389.66-58.69Q389.66-57.00 389.19-56.01L389.19-56.01L389.19-56.01Q388.73-55.03 387.97-54.33L387.97-54.33L387.97-54.33Q386.40-52.88 385.01-52.88L385.01-52.88L385.01-52.88Q382.80-52.88 381.75-53.34L381.75-53.34L381.75-53.34Q379.95-54.15 378.56-54.15L378.56-54.15L378.56-54.15Q377.16-54.15 375.01-51.92L375.01-51.92L375.01-51.92Q372.86-49.68 370.89-45.73L370.89-45.73L370.89-45.73Q366.06-36.08 366.06-24.81L366.06-24.81L366.06 0L341.08 0ZM423.88 0L423.88-82.22L448.05-82.22L448.05-82.22Q464.96-82.22 472.86-79.84L472.86-79.84L472.86-79.84Q481.87-77.05 486.78-72.69L486.78-72.69L486.78-72.69Q491.69-68.33 494.48-63.68L494.48-63.68L494.48-63.68Q500.17-54.21 500.17-42.18L500.17-42.18L500.17-42.18Q500.17-23.24 486.58-11.50L486.58-11.50L486.58-11.50Q476.93-3.08 463.86-1.10L463.86-1.10L463.86-1.10Q456.59 0 443.52 0L443.52 0L423.88 0ZM453.51-77.80L453.51-4.82L453.51-4.82Q454.44-4.76 455.20-4.76L455.20-4.76L456.53-4.76L456.53-4.76Q472.28-4.76 483.44-14.58L483.44-14.58L483.44-14.58Q495.23-24.93 495.23-42.07L495.23-42.07L495.23-42.07Q495.23-52.88 490.06-61.53L490.06-61.53L490.06-61.53Q482.57-74.14 466.35-76.82L466.35-76.82L466.35-76.82Q461.07-77.69 453.51-77.80L453.51-77.80ZM527.54-72.23L527.54-72.23L527.54-72.23Q521.55-72.23 518.18-74.90L518.18-74.90L518.18-74.90Q514.81-77.57 514.81-81.93L514.81-81.93L514.81-81.93Q514.81-85.59 518.53-88.20L518.53-88.20L518.53-88.20Q522.48-90.99 526.90-90.99L526.90-90.99L526.90-90.99Q531.32-90.99 533.73-90.12L533.73-90.12L533.73-90.12Q536.14-89.25 537.82-87.86L537.82-87.86L537.82-87.86Q541.19-85.01 541.19-81.23L541.19-81.23L541.19-81.23Q541.19-77.45 537.36-74.84L537.36-74.84L537.36-74.84Q533.52-72.23 527.54-72.23ZM515.34 0L515.34-62.06L540.32-62.06L540.32 0L515.34 0ZM602.32 0L602.32-55.72L602.32-55.72Q600.87-56.65 599.18-56.65L599.18-56.65L599.18-56.65Q597.50-56.65 595.70-55.87L595.70-55.87L595.70-55.87Q593.90-55.08 591.92-53.69L591.92-53.69L591.92-53.69Q587.79-50.73 584.31-45.79L584.31-45.79L584.31 0L559.32 0L559.32-62.06L584.31-62.06L584.31-52.12L584.31-52.12Q594.24-63.10 606.80-63.10L606.80-63.10L606.80-63.10Q627.31-63.10 627.31-43.23L627.31-43.23L627.31 0L602.32 0ZM700.23-14.12L700.23-14.12L700.23-14.12Q702.50-14.12 702.50-12.03L702.50-12.03L702.50-12.03Q702.50-10.46 700.46-8.31L700.46-8.31L700.46-8.31Q691.28 1.10 675.30 1.10L675.30 1.10L675.30 1.10Q660.95 1.10 651.13-7.55L651.13-7.55L651.13-7.55Q640.96-16.56 640.96-30.33L640.96-30.33L640.96-30.33Q640.96-44.39 650.14-53.46L650.14-53.46L650.14-53.46Q659.85-63.10 675.94-63.10L675.94-63.10L675.94-63.10Q688.84-63.10 697.61-55.26L697.61-55.26L697.61-55.26Q707.09-46.83 707.09-33.12L707.09-33.12L707.09-33.12Q707.09-31.14 706.97-28.94L706.97-28.94L668.62-28.94L668.62-4.01L668.62-4.01Q672.57-3.20 677.51-3.20L677.51-3.20L677.51-3.20Q687.97-3.20 695.35-10.11L695.35-10.11L695.35-10.11Q696.86-11.62 697.50-12.49L697.50-12.49L697.50-12.49Q698.83-14.12 700.23-14.12ZM684.71-33.18L684.71-57.76L684.71-57.76Q680.94-58.86 676.17-58.86L676.17-58.86L676.17-58.86Q671.41-58.86 668.62-58.22L668.62-58.22L668.62-33.18L684.71-33.18ZM721.84 0L721.84-62.06L746.83-62.06L746.83-43.81L746.83-43.81Q750.84-53.75 755.46-58.43L755.46-58.43L755.46-58.43Q760.08-63.10 764.73-63.10L764.73-63.10L764.73-63.10Q767.34-63.10 768.88-61.74L768.88-61.74L768.88-61.74Q770.42-60.37 770.42-58.69L770.42-58.69L770.42-58.69Q770.42-57.00 769.96-56.01L769.96-56.01L769.96-56.01Q769.49-55.03 768.74-54.33L768.74-54.33L768.74-54.33Q767.17-52.88 765.77-52.88L765.77-52.88L765.77-52.88Q763.56-52.88 762.52-53.34L762.52-53.34L762.52-53.34Q760.72-54.15 759.32-54.15L759.32-54.15L759.32-54.15Q757.93-54.15 755.78-51.92L755.78-51.92L755.78-51.92Q753.63-49.68 751.65-45.73L751.65-45.73L751.65-45.73Q746.83-36.08 746.83-24.81L746.83-24.81L746.83 0L721.84 0Z" fill="#23d3ff"></path></g></g><style>text {
  font-size: 64px;
  font-family: Arial Black;
  dominant-baseline: central;
  text-anchor: middle;
}</style></svg>