<svg width="716.622412109375px" height="149.6px" xmlns="http://www.w3.org/2000/svg" viewBox="-108.31120605468749 0.20000000000000284 716.622412109375 149.6" style="background: rgba(0, 0, 0, 0);" preserveAspectRatio="xMidYMid"><defs><filter id="editing-hole" x="-100%" y="-100%" width="300%" height="300%"><feFlood flood-color="#000000" result="black"></feFlood><feMorphology operator="dilate" radius="2" in="SourceGraphic" result="erode"></feMorphology><feGaussianBlur in="erode" stdDeviation="4" result="blur"></feGaussianBlur><feOffset in="blur" dx="2" dy="2" result="offset"></feOffset><feComposite operator="atop" in="offset" in2="black" result="merge"></feComposite><feComposite operator="in" in="merge" in2="SourceGraphic" result="inner-shadow"></feComposite></filter></defs><g filter="url(#editing-hole)"><g transform="translate(-7.909733295440674, 106.07500267028809)"><path d="M38.88-35.03L38.88-35.03L37.30-35.06L37.30-35.06Q36.45-35.14 35.14-35.14L35.14-35.14L26.50-35.14L26.50 0L6.83 0L6.83-54.58L37.46-54.58L41.27-54.70L41.97-54.70L41.97-54.70Q44.86-54.70 44.86-53.00L44.86-53.00L44.86-53.00Q44.86-52.35 44.34-51.79L44.34-51.79L44.34-51.79Q43.82-51.23 43.20-51.23L43.20-51.23L43.20-51.23Q42.20-51.23 41.27-51.42L41.27-51.42L41.27-51.42Q39.50-51.81 36.65-51.81L36.65-51.81L26.50-51.81L26.50-37.92L34.25-37.92L34.25-37.92Q34.25-37.92 39.04-38.11L39.04-38.11L39.04-38.11Q41.12-38.11 41.12-36.57L41.12-36.57L41.12-36.57Q41.12-35.03 38.88-35.03ZM51.34 0L51.34-54.58L67.93-54.58L67.93 0L51.34 0ZM106.35 0L106.35-2.55L106.35-2.55Q101.41 0.73 95.39 0.73L95.39 0.73L95.39 0.73Q87.41 0.73 82.59-3.28L82.59-3.28L82.59-3.28Q77.57-7.41 77.57-14.74L77.57-14.74L77.57-14.74Q77.57-21.22 82.55-25.38L82.55-25.38L82.55-25.38Q87.64-29.59 95.93-29.59L95.93-29.59L95.93-29.59Q101.49-29.59 106.35-27.46L106.35-27.46L106.35-38.07L106.35-38.07Q102.84-39.08 100.16-39.08L100.16-39.08L100.16-39.08Q97.48-39.08 95.63-38.84L95.63-38.84L95.63-38.84Q93.77-38.61 92.12-38.15L92.12-38.15L92.12-38.15Q88.53-37.15 86.68-35.45L86.68-35.45L86.68-35.45Q85.60-34.45 84.71-34.45L84.71-34.45L84.71-34.45Q83.82-34.45 83.36-34.89L83.36-34.89L83.36-34.89Q82.90-35.33 82.90-35.87L82.90-35.87L82.90-35.87Q82.90-36.41 83.09-36.86L83.09-36.86L83.09-36.86Q83.28-37.30 83.82-37.76L83.82-37.76L83.82-37.76Q84.98-38.77 87.68-39.77L87.68-39.77L87.68-39.77Q93.27-41.89 98.90-41.89L98.90-41.89L98.90-41.89Q116.03-41.89 120.78-33.71L120.78-33.71L120.78-33.71Q122.86-30.09 122.86-24.19L122.86-24.19L122.86 0L106.35 0ZM106.35-5.86L106.35-24.46L106.35-24.46Q101.49-26.81 96.67-26.81L96.67-26.81L96.67-26.81Q95.90-26.81 95.20-26.69L95.20-26.69L95.20-2.16L95.20-2.16Q95.39-2.12 95.63-2.12L95.63-2.12L95.63-2.12Q95.86-2.12 96.09-2.12L96.09-2.12L96.09-2.12Q101.37-2.12 106.35-5.86L106.35-5.86ZM149.59 1.74L128.41-41.20L145.89-41.20L156.38-19.56L162.98-32.67L162.98-32.67Q165.02-36.88 165.54-38.92L165.54-38.92L165.54-38.92Q166.06-40.97 166.58-41.43L166.58-41.43L166.58-41.43Q167.10-41.89 167.86-41.89L167.86-41.89L167.86-41.89Q168.61-41.89 169.03-41.39L169.03-41.39L169.03-41.39Q169.46-40.89 169.46-40.39L169.46-40.39L169.46-40.39Q169.46-39.89 169.36-39.38L169.36-39.38L169.36-39.38Q169.26-38.88 168.99-38.03L168.99-38.03L168.99-38.03Q168.42-36.45 166.56-32.56L166.56-32.56L149.59 1.74ZM172.62-20.83L172.62-20.83L172.62-20.83Q172.62-25.46 174.30-29.26L174.30-29.26L174.30-29.26Q175.98-33.06 178.91-35.87L178.91-35.87L178.91-35.87Q185.23-41.89 194.80-41.89L194.80-41.89L194.80-41.89Q204.56-41.89 210.69-35.64L210.69-35.64L210.69-35.64Q216.56-29.74 216.56-20.71L216.56-20.71L216.56-20.71Q216.56-11.65 210.54-5.55L210.54-5.55L210.54-5.55Q204.33 0.73 194.65 0.73L194.65 0.73L194.65 0.73Q185.19 0.73 178.98-5.25L178.98-5.25L178.98-5.25Q172.62-11.42 172.62-20.83ZM193.57-39.04L193.57-2.16L193.57-2.16Q193.87-2.12 194.18-2.12L194.18-2.12L194.72-2.12L194.72-2.12Q202.51-2.12 207.80-6.94L207.80-6.94L207.80-6.94Q213.43-12.15 213.43-20.60L213.43-20.60L213.43-20.60Q213.43-28.85 208.15-33.98L208.15-33.98L208.15-33.98Q202.94-39.08 194.68-39.08L194.68-39.08L194.11-39.08L194.11-39.08Q193.84-39.08 193.57-39.04L193.57-39.04ZM226.43 0L226.43-41.20L243.02-41.20L243.02-29.08L243.02-29.08Q245.68-35.68 248.75-38.79L248.75-38.79L248.75-38.79Q251.81-41.89 254.90-41.89L254.90-41.89L254.90-41.89Q256.63-41.89 257.66-40.99L257.66-40.99L257.66-40.99Q258.68-40.08 258.68-38.96L258.68-38.96L258.68-38.96Q258.68-37.84 258.37-37.19L258.37-37.19L258.37-37.19Q258.06-36.53 257.56-36.07L257.56-36.07L257.56-36.07Q256.52-35.10 255.59-35.10L255.59-35.10L255.59-35.10Q254.13-35.10 253.43-35.41L253.43-35.41L253.43-35.41Q252.24-35.95 251.31-35.95L251.31-35.95L251.31-35.95Q250.39-35.95 248.96-34.47L248.96-34.47L248.96-34.47Q247.53-32.98 246.22-30.36L246.22-30.36L246.22-30.36Q243.02-23.95 243.02-16.47L243.02-16.47L243.02 0L226.43 0ZM281.40 0L281.40-54.58L297.45-54.58L297.45-54.58Q308.67-54.58 313.92-53.00L313.92-53.00L313.92-53.00Q319.90-51.15 323.16-48.26L323.16-48.26L323.16-48.26Q326.42-45.36 328.27-42.28L328.27-42.28L328.27-42.28Q332.05-35.99 332.05-28.00L332.05-28.00L332.05-28.00Q332.05-15.43 323.02-7.64L323.02-7.64L323.02-7.64Q316.62-2.04 307.94-0.73L307.94-0.73L307.94-0.73Q303.12 0 294.44 0L294.44 0L281.40 0ZM301.07-51.65L301.07-3.20L301.07-3.20Q301.69-3.16 302.19-3.16L302.19-3.16L303.08-3.16L303.08-3.16Q313.53-3.16 320.94-9.68L320.94-9.68L320.94-9.68Q328.77-16.55 328.77-27.93L328.77-27.93L328.77-27.93Q328.77-35.10 325.33-40.85L325.33-40.85L325.33-40.85Q320.36-49.22 309.60-51.00L309.60-51.00L309.60-51.00Q306.09-51.57 301.07-51.65L301.07-51.65ZM350.22-47.95L350.22-47.95L350.22-47.95Q346.24-47.95 344.00-49.72L344.00-49.72L344.00-49.72Q341.77-51.50 341.77-54.39L341.77-54.39L341.77-54.39Q341.77-56.82 344.24-58.56L344.24-58.56L344.24-58.56Q346.86-60.41 349.79-60.41L349.79-60.41L349.79-60.41Q352.72-60.41 354.32-59.83L354.32-59.83L354.32-59.83Q355.92-59.25 357.04-58.32L357.04-58.32L357.04-58.32Q359.28-56.43 359.28-53.93L359.28-53.93L359.28-53.93Q359.28-51.42 356.73-49.68L356.73-49.68L356.73-49.68Q354.19-47.95 350.22-47.95ZM342.11 0L342.11-41.20L358.70-41.20L358.70 0L342.11 0ZM399.86 0L399.86-36.99L399.86-36.99Q398.90-37.61 397.78-37.61L397.78-37.61L397.78-37.61Q396.66-37.61 395.46-37.09L395.46-37.09L395.46-37.09Q394.27-36.57 392.96-35.64L392.96-35.64L392.96-35.64Q390.22-33.68 387.90-30.40L387.90-30.40L387.90 0L371.32 0L371.32-41.20L387.90-41.20L387.90-34.60L387.90-34.60Q394.50-41.89 402.83-41.89L402.83-41.89L402.83-41.89Q416.45-41.89 416.45-28.70L416.45-28.70L416.45 0L399.86 0ZM464.86-9.37L464.86-9.37L464.86-9.37Q466.36-9.37 466.36-7.98L466.36-7.98L466.36-7.98Q466.36-6.94 465.01-5.52L465.01-5.52L465.01-5.52Q458.92 0.73 448.31 0.73L448.31 0.73L448.31 0.73Q438.78 0.73 432.26-5.01L432.26-5.01L432.26-5.01Q425.51-10.99 425.51-20.14L425.51-20.14L425.51-20.14Q425.51-29.47 431.61-35.49L431.61-35.49L431.61-35.49Q438.05-41.89 448.73-41.89L448.73-41.89L448.73-41.89Q457.30-41.89 463.12-36.68L463.12-36.68L463.12-36.68Q469.41-31.09 469.41-21.99L469.41-21.99L469.41-21.99Q469.41-20.68 469.33-19.21L469.33-19.21L443.87-19.21L443.87-2.66L443.87-2.66Q446.50-2.12 449.78-2.12L449.78-2.12L449.78-2.12Q456.72-2.12 461.62-6.71L461.62-6.71L461.62-6.71Q462.62-7.71 463.04-8.29L463.04-8.29L463.04-8.29Q463.93-9.37 464.86-9.37ZM454.56-22.03L454.56-38.34L454.56-38.34Q452.05-39.08 448.89-39.08L448.89-39.08L448.89-39.08Q445.73-39.08 443.87-38.65L443.87-38.65L443.87-22.03L454.56-22.03ZM479.21 0L479.21-41.20L495.79-41.20L495.79-29.08L495.79-29.08Q498.46-35.68 501.52-38.79L501.52-38.79L501.52-38.79Q504.59-41.89 507.68-41.89L507.68-41.89L507.68-41.89Q509.41-41.89 510.43-40.99L510.43-40.99L510.43-40.99Q511.46-40.08 511.46-38.96L511.46-38.96L511.46-38.96Q511.46-37.84 511.15-37.19L511.15-37.19L511.15-37.19Q510.84-36.53 510.34-36.07L510.34-36.07L510.34-36.07Q509.30-35.10 508.37-35.10L508.37-35.10L508.37-35.10Q506.90-35.10 506.21-35.41L506.21-35.41L506.21-35.41Q505.01-35.95 504.09-35.95L504.09-35.95L504.09-35.95Q503.16-35.95 501.73-34.47L501.73-34.47L501.73-34.47Q500.31-32.98 499.00-30.36L499.00-30.36L499.00-30.36Q495.79-23.95 495.79-16.47L495.79-16.47L495.79 0L479.21 0Z" fill="#23d3ff"></path></g></g><style>text {
  font-size: 64px;
  font-family: Arial Black;
  dominant-baseline: central;
  text-anchor: middle;
}</style></svg>