<svg width="565.62177734375px" height="125.6px" xmlns="http://www.w3.org/2000/svg" viewBox="-32.81088867187498 12.200000000000003 565.62177734375 125.6" style="background:#051103" preserveAspectRatio="xMidYMid"><defs><linearGradient id="editing-glowing-gradient" x1="0.8146601955249185" x2="0.18533980447508147" y1="0.8885729807284856" y2="0.11142701927151444"><stop offset="0" stop-color="#67ff43"></stop><stop offset="1" stop-color="#90ffff"></stop></linearGradient><filter id="editing-glowing" x="-100%" y="-100%" width="300%" height="300%"><feGaussianBlur in="SourceGraphic" result="blur" stdDeviation="10"></feGaussianBlur><feMerge><feMergeNode in="blur"></feMergeNode><feMergeNode in="SourceGraphic"></feMergeNode></feMerge></filter></defs><g filter="url(#editing-glowing)"><g transform="translate(48.429633140563965, 100.17499923706055)"><path d="M31.50-28.38L31.50-28.38L30.22-28.41L30.22-28.41Q29.53-28.47 28.47-28.47L28.47-28.47L21.47-28.47L21.47 0L5.53 0L5.53-44.22L30.34-44.22L33.44-44.31L34-44.31L34-44.31Q36.34-44.31 36.34-42.94L36.34-42.94L36.34-42.94Q36.34-42.41 35.92-41.95L35.92-41.95L35.92-41.95Q35.50-41.50 35-41.50L35-41.50L35-41.50Q34.19-41.50 33.44-41.66L33.44-41.66L33.44-41.66Q32-41.97 29.69-41.97L29.69-41.97L21.47-41.97L21.47-30.72L27.75-30.72L27.75-30.72Q27.75-30.72 31.63-30.88L31.63-30.88L31.63-30.88Q33.31-30.88 33.31-29.63L33.31-29.63L33.31-29.63Q33.31-28.38 31.50-28.38ZM41.59 0L41.59-44.22L55.03-44.22L55.03 0L41.59 0ZM86.16 0L86.16-2.06L86.16-2.06Q82.16 0.59 77.28 0.59L77.28 0.59L77.28 0.59Q70.81 0.59 66.91-2.66L66.91-2.66L66.91-2.66Q62.84-6 62.84-11.94L62.84-11.94L62.84-11.94Q62.84-17.19 66.88-20.56L66.88-20.56L66.88-20.56Q71-23.97 77.72-23.97L77.72-23.97L77.72-23.97Q82.22-23.97 86.16-22.25L86.16-22.25L86.16-30.84L86.16-30.84Q83.31-31.66 81.14-31.66L81.14-31.66L81.14-31.66Q78.97-31.66 77.47-31.47L77.47-31.47L77.47-31.47Q75.97-31.28 74.63-30.91L74.63-30.91L74.63-30.91Q71.72-30.09 70.22-28.72L70.22-28.72L70.22-28.72Q69.34-27.91 68.63-27.91L68.63-27.91L68.63-27.91Q67.91-27.91 67.53-28.27L67.53-28.27L67.53-28.27Q67.16-28.63 67.16-29.06L67.16-29.06L67.16-29.06Q67.16-29.50 67.31-29.86L67.31-29.86L67.31-29.86Q67.47-30.22 67.91-30.59L67.91-30.59L67.91-30.59Q68.84-31.41 71.03-32.22L71.03-32.22L71.03-32.22Q75.56-33.94 80.13-33.94L80.13-33.94L80.13-33.94Q94-33.94 97.84-27.31L97.84-27.31L97.84-27.31Q99.53-24.38 99.53-19.59L99.53-19.59L99.53 0L86.16 0ZM86.16-4.75L86.16-19.81L86.16-19.81Q82.22-21.72 78.31-21.72L78.31-21.72L78.31-21.72Q77.69-21.72 77.13-21.63L77.13-21.63L77.13-1.75L77.13-1.75Q77.28-1.72 77.47-1.72L77.47-1.72L77.47-1.72Q77.66-1.72 77.84-1.72L77.84-1.72L77.84-1.72Q82.13-1.72 86.16-4.75L86.16-4.75ZM121.19 1.41L104.03-33.38L118.19-33.38L126.69-15.84L132.03-26.47L132.03-26.47Q133.69-29.88 134.11-31.53L134.11-31.53L134.11-31.53Q134.53-33.19 134.95-33.56L134.95-33.56L134.95-33.56Q135.38-33.94 135.98-33.94L135.98-33.94L135.98-33.94Q136.59-33.94 136.94-33.53L136.94-33.53L136.94-33.53Q137.28-33.13 137.28-32.72L137.28-32.72L137.28-32.72Q137.28-32.31 137.20-31.91L137.20-31.91L137.20-31.91Q137.13-31.50 136.91-30.81L136.91-30.81L136.91-30.81Q136.44-29.53 134.94-26.38L134.94-26.38L121.19 1.41ZM139.84-16.88L139.84-16.88L139.84-16.88Q139.84-20.63 141.20-23.70L141.20-23.70L141.20-23.70Q142.56-26.78 144.94-29.06L144.94-29.06L144.94-29.06Q150.06-33.94 157.81-33.94L157.81-33.94L157.81-33.94Q165.72-33.94 170.69-28.88L170.69-28.88L170.69-28.88Q175.44-24.09 175.44-16.78L175.44-16.78L175.44-16.78Q175.44-9.44 170.56-4.50L170.56-4.50L170.56-4.50Q165.53 0.59 157.69 0.59L157.69 0.59L157.69 0.59Q150.03 0.59 145-4.25L145-4.25L145-4.25Q139.84-9.25 139.84-16.88ZM156.81-31.63L156.81-1.75L156.81-1.75Q157.06-1.72 157.31-1.72L157.31-1.72L157.75-1.72L157.75-1.72Q164.06-1.72 168.34-5.63L168.34-5.63L168.34-5.63Q172.91-9.84 172.91-16.69L172.91-16.69L172.91-16.69Q172.91-23.38 168.63-27.53L168.63-27.53L168.63-27.53Q164.41-31.66 157.72-31.66L157.72-31.66L157.25-31.66L157.25-31.66Q157.03-31.66 156.81-31.63L156.81-31.63ZM183.44 0L183.44-33.38L196.88-33.38L196.88-23.56L196.88-23.56Q199.03-28.91 201.52-31.42L201.52-31.42L201.52-31.42Q204-33.94 206.50-33.94L206.50-33.94L206.50-33.94Q207.91-33.94 208.73-33.20L208.73-33.20L208.73-33.20Q209.56-32.47 209.56-31.56L209.56-31.56L209.56-31.56Q209.56-30.66 209.31-30.13L209.31-30.13L209.31-30.13Q209.06-29.59 208.66-29.22L208.66-29.22L208.66-29.22Q207.81-28.44 207.06-28.44L207.06-28.44L207.06-28.44Q205.88-28.44 205.31-28.69L205.31-28.69L205.31-28.69Q204.34-29.13 203.59-29.13L203.59-29.13L203.59-29.13Q202.84-29.13 201.69-27.92L201.69-27.92L201.69-27.92Q200.53-26.72 199.47-24.59L199.47-24.59L199.47-24.59Q196.88-19.41 196.88-13.34L196.88-13.34L196.88 0L183.44 0ZM213.72 0L213.72-44.22L226.72-44.22L226.72-44.22Q235.81-44.22 240.06-42.94L240.06-42.94L240.06-42.94Q244.91-41.44 247.55-39.09L247.55-39.09L247.55-39.09Q250.19-36.75 251.69-34.25L251.69-34.25L251.69-34.25Q254.75-29.16 254.75-22.69L254.75-22.69L254.75-22.69Q254.75-12.50 247.44-6.19L247.44-6.19L247.44-6.19Q242.25-1.66 235.22-0.59L235.22-0.59L235.22-0.59Q231.31 0 224.28 0L224.28 0L213.72 0ZM229.66-41.84L229.66-2.59L229.66-2.59Q230.16-2.56 230.56-2.56L230.56-2.56L231.28-2.56L231.28-2.56Q239.75-2.56 245.75-7.84L245.75-7.84L245.75-7.84Q252.09-13.41 252.09-22.63L252.09-22.63L252.09-22.63Q252.09-28.44 249.31-33.09L249.31-33.09L249.31-33.09Q245.28-39.88 236.56-41.31L236.56-41.31L236.56-41.31Q233.72-41.78 229.66-41.84L229.66-41.84ZM269.47-38.84L269.47-38.84L269.47-38.84Q266.25-38.84 264.44-40.28L264.44-40.28L264.44-40.28Q262.63-41.72 262.63-44.06L262.63-44.06L262.63-44.06Q262.63-46.03 264.63-47.44L264.63-47.44L264.63-47.44Q266.75-48.94 269.13-48.94L269.13-48.94L269.13-48.94Q271.50-48.94 272.80-48.47L272.80-48.47L272.80-48.47Q274.09-48 275-47.25L275-47.25L275-47.25Q276.81-45.72 276.81-43.69L276.81-43.69L276.81-43.69Q276.81-41.66 274.75-40.25L274.75-40.25L274.75-40.25Q272.69-38.84 269.47-38.84ZM262.91 0L262.91-33.38L276.34-33.38L276.34 0L262.91 0ZM309.69 0L309.69-29.97L309.69-29.97Q308.91-30.47 308-30.47L308-30.47L308-30.47Q307.09-30.47 306.13-30.05L306.13-30.05L306.13-30.05Q305.16-29.63 304.09-28.88L304.09-28.88L304.09-28.88Q301.88-27.28 300-24.63L300-24.63L300 0L286.56 0L286.56-33.38L300-33.38L300-28.03L300-28.03Q305.34-33.94 312.09-33.94L312.09-33.94L312.09-33.94Q323.13-33.94 323.13-23.25L323.13-23.25L323.13 0L309.69 0ZM362.34-7.59L362.34-7.59L362.34-7.59Q363.56-7.59 363.56-6.47L363.56-6.47L363.56-6.47Q363.56-5.63 362.47-4.47L362.47-4.47L362.47-4.47Q357.53 0.59 348.94 0.59L348.94 0.59L348.94 0.59Q341.22 0.59 335.94-4.06L335.94-4.06L335.94-4.06Q330.47-8.91 330.47-16.31L330.47-16.31L330.47-16.31Q330.47-23.88 335.41-28.75L335.41-28.75L335.41-28.75Q340.63-33.94 349.28-33.94L349.28-33.94L349.28-33.94Q356.22-33.94 360.94-29.72L360.94-29.72L360.94-29.72Q366.03-25.19 366.03-17.81L366.03-17.81L366.03-17.81Q366.03-16.75 365.97-15.56L365.97-15.56L345.34-15.56L345.34-2.16L345.34-2.16Q347.47-1.72 350.13-1.72L350.13-1.72L350.13-1.72Q355.75-1.72 359.72-5.44L359.72-5.44L359.72-5.44Q360.53-6.25 360.88-6.72L360.88-6.72L360.88-6.72Q361.59-7.59 362.34-7.59ZM354-17.84L354-31.06L354-31.06Q351.97-31.66 349.41-31.66L349.41-31.66L349.41-31.66Q346.84-31.66 345.34-31.31L345.34-31.31L345.34-17.84L354-17.84ZM373.97 0L373.97-33.38L387.41-33.38L387.41-23.56L387.41-23.56Q389.56-28.91 392.05-31.42L392.05-31.42L392.05-31.42Q394.53-33.94 397.03-33.94L397.03-33.94L397.03-33.94Q398.44-33.94 399.27-33.20L399.27-33.20L399.27-33.20Q400.09-32.47 400.09-31.56L400.09-31.56L400.09-31.56Q400.09-30.66 399.84-30.13L399.84-30.13L399.84-30.13Q399.59-29.59 399.19-29.22L399.19-29.22L399.19-29.22Q398.34-28.44 397.59-28.44L397.59-28.44L397.59-28.44Q396.41-28.44 395.84-28.69L395.84-28.69L395.84-28.69Q394.88-29.13 394.13-29.13L394.13-29.13L394.13-29.13Q393.38-29.13 392.22-27.92L392.22-27.92L392.22-27.92Q391.06-26.72 390-24.59L390-24.59L390-24.59Q387.41-19.41 387.41-13.34L387.41-13.34L387.41 0L373.97 0Z" fill="url(#editing-glowing-gradient)"></path></g></g><style>text {
  font-size: 64px;
  font-family: Arial Black;
  dominant-baseline: central;
  text-anchor: middle;
}</style></svg>