<svg xmlns="http://www.w3.org/2000/svg" version="1.1" xmlns:xlink="http://www.w3.org/1999/xlink" xmlns:svgjs="http://svgjs.dev/svgjs" width="2000" height="1247" viewBox="0 0 2000 1247"><g transform="matrix(1,0,0,1,-1.2121212121212466,0.504858299595071)"><svg viewBox="0 0 396 247" data-background-color="#ffffff" preserveAspectRatio="xMidYMid meet" height="1247" width="2000" xmlns="http://www.w3.org/2000/svg" xmlns:xlink="http://www.w3.org/1999/xlink"><g id="tight-bounds" transform="matrix(1,0,0,1,0.2400000000000091,-0.09999999999999432)"><svg viewBox="0 0 395.52 247.2" height="247.2" width="395.52"><g><svg></svg></g><g><svg viewBox="0 0 395.52 247.2" height="247.2" width="395.52"><g transform="matrix(1,0,0,1,39.55199999999999,76.28469040119495)"><svg viewBox="0 0 316.416 94.63061919761007" height="94.63061919761007" width="316.416"><g><svg viewBox="0 0 316.416 94.63061919761007" height="94.63061919761007" width="316.416"><g><svg viewBox="0 0 316.416 94.63061919761007" height="94.63061919761007" width="316.416"><g><svg viewBox="0 0 316.416 94.63061919761007" height="94.63061919761007" width="316.416"><g><svg viewBox="0 0 316.416 94.63061919761007" height="94.63061919761007" width="316.416"><g><svg viewBox="0 0 316.416 51.03923420486004" height="51.03923420486004" width="316.416"><g transform="matrix(1,0,0,1,0,0)"><svg width="316.416" viewBox="1.51 -37.5 241.53884955529205 38.96" height="51.03923420486004" data-palette-color="#ea3c12"><path d="M21.39-35.25L21.39-35.25Q21.39-33.4 20.12-31.88 18.85-30.37 17.02-29.17 15.19-27.98 13.18-27.1 11.18-26.22 9.72-25.63L9.72-25.63Q9.72-24.61 9.67-23.54 9.62-22.46 9.52-21.39L9.52-21.39Q11.08-22.17 13.04-22.85 14.99-23.54 16.75-23.54L16.75-23.54Q18.16-23.54 19.07-22.95 19.97-22.36 19.97-20.9L19.97-20.9Q19.97-19.29 18.82-18.02 17.68-16.75 16.06-15.77 14.45-14.79 12.7-14.11 10.94-13.43 9.72-13.04L9.72-13.04Q9.72-11.43 9.67-9.84 9.62-8.25 9.52-6.69L9.52-6.69Q9.47-5.91 9.35-4.74 9.23-3.56 8.86-2.47 8.5-1.37 7.81-0.56 7.13 0.24 6.05 0.24L6.05 0.24Q5.03 0.24 4.3-0.76 3.56-1.76 3.05-3.32 2.54-4.88 2.22-6.81 1.9-8.74 1.73-10.6 1.56-12.45 1.54-14.01 1.51-15.58 1.51-16.41L1.51-16.41Q1.51-17.04 1.54-18.29 1.56-19.53 1.59-21.04 1.61-22.56 1.68-24.22 1.76-25.88 1.86-27.37 1.95-28.86 2.12-30 2.29-31.15 2.54-31.69L2.54-31.69Q3.08-32.76 5.1-33.81 7.13-34.86 9.62-35.67 12.11-36.47 14.48-36.99 16.85-37.5 18.12-37.5L18.12-37.5Q18.7-37.5 19.26-37.43 19.82-37.35 20.31-37.11 20.8-36.87 21.09-36.43 21.39-35.99 21.39-35.25ZM30.76-29.59L30.76-29.59Q30.76-26.95 30.54-24.29 30.32-21.63 30.32-18.95L30.32-18.95Q30.32-15.48 30.54-12.01 30.76-8.54 30.76-5.03L30.76-5.03Q30.76-4.15 30.66-3.05 30.56-1.95 30.2-1.03 29.83-0.1 29.1 0.54 28.37 1.17 27.15 1.17L27.15 1.17Q25.97 1.17 25.12 0.02 24.27-1.12 23.7-2.91 23.14-4.69 22.78-6.88 22.41-9.08 22.24-11.16 22.07-13.23 21.99-14.97 21.92-16.7 21.92-17.53L21.92-17.53Q21.92-18.46 21.99-20.21 22.07-21.97 22.31-24.02 22.56-26.07 22.97-28.2 23.39-30.32 24.07-32.06 24.75-33.79 25.71-34.89 26.66-35.99 27.98-35.99L27.98-35.99Q29.05-35.99 29.61-35.28 30.17-34.57 30.42-33.57 30.66-32.57 30.71-31.47 30.76-30.37 30.76-29.59ZM55.22-6.88L55.22-6.88Q55.22-6.01 55.15-4.59 55.07-3.17 54.73-1.83 54.39-0.49 53.66 0.49 52.92 1.46 51.61 1.46L51.61 1.46Q49.8 1.46 48.82 0.29 47.85-0.88 47.9-2.64L47.9-2.64Q46.33-1.27 44.36-0.49 42.38 0.29 40.33 0.29L40.33 0.29Q38.91 0.29 37.64-0.39 36.37-1.07 35.4-2.15 34.42-3.22 33.83-4.57 33.25-5.91 33.25-7.23L33.25-7.23Q33.25-9.57 34.69-11.33 36.13-13.09 38.23-14.33 40.33-15.58 42.7-16.31 45.06-17.04 46.92-17.29L46.92-17.29Q46.92-17.53 46.94-17.72 46.97-17.92 46.97-18.16L46.97-18.16Q46.97-19.68 46.14-20.61 45.31-21.53 43.79-21.53L43.79-21.53Q42.57-21.53 41.69-21.12 40.82-20.7 40.03-20.19 39.25-19.68 38.47-19.26 37.69-18.85 36.71-18.85L36.71-18.85Q35.64-18.85 34.88-19.53 34.13-20.21 34.13-21.29L34.13-21.29Q34.13-22.9 35.08-24.22 36.03-25.54 37.47-26.44 38.91-27.34 40.6-27.86 42.28-28.37 43.7-28.37L43.7-28.37Q45.01-28.37 46.33-28.05 47.65-27.73 48.82-27.08 50-26.42 50.95-25.46 51.9-24.51 52.49-23.24L52.49-23.24Q53.36-21.44 53.9-19.41 54.44-17.38 54.73-15.26 55.02-13.13 55.12-11.01 55.22-8.89 55.22-6.88ZM47.41-8.45L47.41-8.45 47.26-11.77Q47.16-11.77 47.07-11.79 46.97-11.82 46.87-11.82L46.87-11.82Q46.24-11.82 45.28-11.5 44.33-11.18 43.45-10.62 42.57-10.06 41.96-9.38 41.35-8.69 41.35-7.96L41.35-7.96Q41.35-7.28 41.84-7.03 42.33-6.79 42.96-6.79L42.96-6.79Q44.04-6.79 45.26-7.35 46.48-7.91 47.41-8.45ZM79.19-17.48L79.19-17.48Q77.92-14.11 76.41-10.45 74.89-6.79 73.14-3.61L73.14-3.61Q72.06-1.66 70.74-0.37 69.43 0.93 67.72 0.93L67.72 0.93Q66.35 0.93 65.06-0.46 63.76-1.86 62.66-3.78 61.56-5.71 60.76-7.69 59.95-9.67 59.56-10.84L59.56-10.84Q59.17-12.16 58.68-13.67 58.2-15.19 57.81-16.75L57.81-16.75Q57.41-18.31 57.17-19.85 56.93-21.39 56.93-22.75L56.93-22.75Q56.93-24.66 57.61-25.88 58.29-27.1 60.3-27.1L60.3-27.1Q61.08-27.1 61.71-26.64 62.35-26.17 62.88-25.34 63.42-24.51 63.91-23.41 64.4-22.31 64.84-21L64.84-21Q65.28-19.73 65.67-18.36 66.06-16.99 66.45-15.72L66.45-15.72Q66.84-14.45 67.25-13.26 67.67-12.06 68.35-10.89L68.35-10.89Q68.69-11.77 69.13-12.89 69.57-14.01 70.09-15.28 70.6-16.55 71.18-17.9 71.77-19.24 72.45-20.51L72.45-20.51Q73.77-23.14 75.26-25 76.75-26.86 78.22-26.86L78.22-26.86Q79.58-26.86 80.17-26.03 80.75-25.2 80.75-23.88L80.75-23.88Q80.75-22.56 80.31-20.9 79.88-19.24 79.19-17.48ZM91.74 1.42L91.74 1.42Q89.25 1.42 87.39 0.1 85.54-1.22 84.27-3.27 83-5.32 82.36-7.84 81.73-10.35 81.73-12.79L81.73-12.79Q81.73-15.38 82.36-18.14 83-20.9 84.32-23.17 85.63-25.44 87.69-26.88 89.74-28.32 92.57-28.32L92.57-28.32Q95.3-28.32 97.23-26.83 99.16-25.34 100.33-23.12 101.5-20.9 101.99-18.26 102.48-15.63 102.33-13.28L102.33-13.28Q102.19-10.69 101.53-8.06 100.87-5.42 99.6-3.32 98.33-1.22 96.38 0.1 94.42 1.42 91.74 1.42ZM92.23-20.65L92.23-20.65Q91.49-20.65 90.93-19.87 90.37-19.09 90-17.97 89.64-16.85 89.44-15.6 89.25-14.36 89.25-13.43L89.25-13.43Q89.25-12.26 89.47-10.89 89.69-9.52 90.08-8.37 90.47-7.23 91.03-6.47 91.59-5.71 92.32-5.71L92.32-5.71Q93.11-5.71 93.67-6.45 94.23-7.18 94.57-8.3 94.91-9.42 95.06-10.77 95.2-12.11 95.2-13.28L95.2-13.28Q95.2-14.36 95.01-15.65 94.81-16.94 94.45-18.07 94.08-19.19 93.52-19.92 92.96-20.65 92.23-20.65ZM121.76-18.26L121.76-18.26Q121.08-18.21 120.59-18.38 120.1-18.55 119.62-18.75L119.62-18.75Q119.18-18.95 118.74-19.12 118.3-19.29 117.76-19.24L117.76-19.24Q116.78-19.19 116.03-18.7 115.27-18.21 114.66-17.48 114.05-16.75 113.61-15.84 113.17-14.94 112.93-14.06L112.93-14.06Q112.78-13.48 112.71-12.28 112.63-11.08 112.63-9.72L112.63-9.72Q112.59-8.3 112.59-7.03 112.59-5.76 112.49-5.03L112.49-5.03Q112.44-4.25 112.24-3.2 112.05-2.15 111.63-1.22 111.22-0.29 110.53 0.34 109.85 0.98 108.78 0.98L108.78 0.98Q107.95 0.98 107.34 0.49 106.73 0 106.31-0.81 105.9-1.61 105.63-2.69 105.36-3.76 105.21-4.88L105.21-4.88Q105.07-6.05 104.99-7.23 104.92-8.4 104.89-9.45 104.87-10.5 104.89-11.38 104.92-12.26 104.92-12.79L104.92-12.79Q104.87-14.5 104.75-16.24 104.63-17.97 104.63-19.68L104.63-19.68Q104.63-20.75 104.72-22.07 104.82-23.39 105.26-24.54 105.7-25.68 106.55-26.46 107.41-27.25 108.92-27.25L108.92-27.25Q109.75-27.25 110.34-26.71 110.93-26.17 111.29-25.39 111.66-24.61 111.85-23.73 112.05-22.85 112.1-22.12L112.1-22.12Q113.27-24.02 114.73-25.22 116.2-26.42 118.54-26.51L118.54-26.51Q119.71-26.56 120.86-26.29 122.01-26.03 122.96-25.42 123.91-24.8 124.52-23.83 125.13-22.85 125.18-21.53L125.18-21.53Q125.28-19.97 124.26-19.14 123.23-18.31 121.76-18.26ZM162.82-21.97L162.82-21.97Q162.82-17.68 161.07-13.7 159.31-9.72 156.35-6.64 153.4-3.56 149.47-1.73 145.54 0.1 141.19 0.1L141.19 0.1 141.1 0.1Q140.22 0.1 139.66-0.71 139.09-1.51 138.7-2.73 138.31-3.96 138.12-5.47 137.92-6.98 137.82-8.42 137.73-9.86 137.73-11.01 137.73-12.16 137.73-12.74L137.73-12.74Q137.73-14.4 137.78-16.04 137.82-17.68 137.92-19.34L137.92-19.34Q137.92-19.87 138-20.92 138.07-21.97 138.17-23.29 138.26-24.61 138.41-26.05 138.56-27.49 138.73-28.74 138.9-29.98 139.07-30.93 139.24-31.88 139.48-32.23L139.48-32.23Q140.12-33.3 141.44-34.13 142.76-34.96 144.29-35.5 145.83-36.04 147.42-36.3 149.01-36.57 150.18-36.57L150.18-36.57Q153.4-36.57 155.77-35.38 158.14-34.18 159.72-32.15 161.31-30.13 162.07-27.49 162.82-24.85 162.82-21.97ZM154.62-20.56L154.62-20.56Q154.62-21.63 154.23-22.75 153.84-23.88 153.13-24.8 152.42-25.73 151.42-26.29 150.42-26.86 149.2-26.86L149.2-26.86Q148.18-26.86 147.1-26.37L147.1-26.37Q146.86-26.22 146.66-25.46 146.47-24.71 146.34-23.63 146.22-22.56 146.13-21.29 146.03-20.02 146-18.87 145.98-17.72 145.95-16.85 145.93-15.97 145.93-15.67L145.93-15.67Q145.93-15.19 145.93-14.23 145.93-13.28 146-12.35 146.08-11.43 146.17-10.74 146.27-10.06 146.52-10.06L146.52-10.06Q147.98-10.06 149.42-11.21 150.86-12.35 152.03-14.01 153.21-15.67 153.91-17.48 154.62-19.29 154.62-20.56ZM173.08-34.08L173.08-34.08Q173.08-33.4 172.71-32.86 172.34-32.32 171.76-31.91 171.17-31.49 170.49-31.27 169.8-31.05 169.22-31.05L169.22-31.05Q168.24-31.05 167.51-31.54 166.78-32.03 166.78-33.06L166.78-33.06Q166.78-33.79 167.14-34.35 167.51-34.91 168.05-35.28 168.58-35.64 169.27-35.84 169.95-36.04 170.59-36.04L170.59-36.04Q171.51-36.04 172.29-35.6 173.08-35.16 173.08-34.08ZM173.47-17.48L173.47-17.48Q173.47-16.8 173.47-16.04 173.47-15.28 173.42-14.6L173.42-14.6Q173.37-13.77 173.37-12.38 173.37-10.99 173.27-9.38 173.17-7.76 172.95-6.1 172.73-4.44 172.25-3.08 171.76-1.71 170.95-0.85 170.15 0 168.93 0.05L168.93 0.05Q168 0.1 167.36-0.68 166.73-1.46 166.31-2.71 165.9-3.96 165.7-5.49 165.51-7.03 165.41-8.47 165.31-9.91 165.31-11.13 165.31-12.35 165.31-12.94L165.31-12.94Q165.31-13.72 165.31-15.16 165.31-16.6 165.41-18.26 165.51-19.92 165.78-21.63 166.04-23.34 166.56-24.76 167.07-26.17 167.9-27.05 168.73-27.93 170-27.93L170-27.93Q171.32-27.93 172-26.61 172.69-25.29 173.03-23.54 173.37-21.78 173.42-20.04 173.47-18.31 173.47-17.48ZM190.8 1.37L190.8 1.37Q189.97 1.37 189.48 0.61 188.99-0.15 188.75-1.12 188.5-2.1 188.43-3.1 188.36-4.1 188.36-4.64L188.36-4.64Q188.36-6.1 188.53-7.57 188.7-9.03 188.92-10.5 189.14-11.96 189.31-13.43 189.48-14.89 189.48-16.36L189.48-16.36Q189.48-16.94 189.43-17.63 189.38-18.31 189.21-18.92 189.04-19.53 188.65-19.92 188.26-20.31 187.62-20.31L187.62-20.31Q187.18-20.31 186.65-19.6 186.11-18.9 185.65-17.99 185.18-17.09 184.87-16.19 184.55-15.28 184.55-14.84L184.55-14.84Q184.55-13.77 184.57-12.67 184.6-11.57 184.6-10.45L184.6-10.45 184.6-7.62Q184.55-6.74 184.45-5.81 184.35-4.88 184.16-4L184.16-4Q184.01-3.13 183.72-2.32 183.42-1.51 182.96-0.9 182.5-0.29 181.86 0.1 181.23 0.49 180.35 0.49L180.35 0.49Q179.37 0.49 178.74-0.15 178.1-0.78 177.71-1.78 177.32-2.78 177.15-4.03 176.98-5.27 176.91-6.47 176.83-7.67 176.86-8.67 176.88-9.67 176.88-10.25L176.88-10.25 176.88-12.55Q176.88-14.4 176.81-16.21 176.74-18.02 176.74-19.82L176.74-19.82Q176.74-20.8 176.76-22.31 176.78-23.83 177.13-25.27 177.47-26.71 178.25-27.73 179.03-28.76 180.54-28.76L180.54-28.76Q181.23-28.76 181.76-28.32 182.3-27.88 182.72-27.25 183.13-26.61 183.4-25.88 183.67-25.15 183.82-24.61L183.82-24.61Q184.3-25.29 184.96-25.93 185.62-26.56 186.45-27.05 187.28-27.54 188.31-27.83 189.33-28.13 190.65-28.13L190.65-28.13Q193.14-28.13 194.53-26.93 195.92-25.73 196.58-23.95 197.24-22.17 197.39-20.12 197.54-18.07 197.54-16.41L197.54-16.41Q197.54-15.58 197.39-13.94 197.24-12.3 196.93-10.33 196.61-8.35 196.07-6.27 195.53-4.2 194.8-2.49 194.07-0.78 193.07 0.29 192.07 1.37 190.8 1.37ZM220.73-8.69L220.73-8.69Q220.73-7.03 219.68-5.44 218.63-3.86 217.04-2.61 215.45-1.37 213.65-0.61 211.84 0.15 210.33 0.15L210.33 0.15Q207.74 0.15 205.71-1.15 203.69-2.44 202.32-4.44 200.95-6.45 200.24-8.86 199.54-11.28 199.54-13.57L199.54-13.57Q199.54-16.02 200.22-18.8 200.9-21.58 202.29-23.93 203.69-26.27 205.81-27.83 207.93-29.39 210.86-29.39L210.86-29.39Q212.52-29.39 214.04-28.83 215.55-28.27 216.67-27.25 217.8-26.22 218.48-24.8 219.16-23.39 219.16-21.63L219.16-21.63Q219.16-19.34 218.19-17.33 217.21-15.33 215.6-13.87 213.99-12.4 211.89-11.5 209.79-10.6 207.59-10.5L207.59-10.5Q207.79-9.08 208.74-8.45 209.69-7.81 211.01-7.81L211.01-7.81Q211.99-7.81 212.91-8.3 213.84-8.79 214.72-9.4 215.6-10.01 216.45-10.5 217.31-10.99 218.19-10.99L218.19-10.99Q219.16-10.99 219.95-10.35 220.73-9.72 220.73-8.69ZM212.82-20.65L212.82-20.65Q212.82-21.29 212.48-21.97 212.13-22.66 211.4-22.66L211.4-22.66Q210.33-22.66 209.59-22.09 208.86-21.53 208.37-20.68 207.89-19.82 207.62-18.85 207.35-17.87 207.3-17.04L207.3-17.04Q207.98-17.19 208.93-17.43 209.89-17.68 210.74-18.09 211.6-18.51 212.21-19.14 212.82-19.78 212.82-20.65ZM239.62-18.26L239.62-18.26Q238.94-18.21 238.45-18.38 237.96-18.55 237.47-18.75L237.47-18.75Q237.03-18.95 236.59-19.12 236.15-19.29 235.62-19.24L235.62-19.24Q234.64-19.19 233.88-18.7 233.13-18.21 232.52-17.48 231.91-16.75 231.47-15.84 231.03-14.94 230.78-14.06L230.78-14.06Q230.64-13.48 230.56-12.28 230.49-11.08 230.49-9.72L230.49-9.72Q230.44-8.3 230.44-7.03 230.44-5.76 230.34-5.03L230.34-5.03Q230.29-4.25 230.1-3.2 229.9-2.15 229.49-1.22 229.07-0.29 228.39 0.34 227.71 0.98 226.63 0.98L226.63 0.98Q225.8 0.98 225.19 0.49 224.58 0 224.17-0.81 223.75-1.61 223.48-2.69 223.21-3.76 223.07-4.88L223.07-4.88Q222.92-6.05 222.85-7.23 222.78-8.4 222.75-9.45 222.73-10.5 222.75-11.38 222.78-12.26 222.78-12.79L222.78-12.79Q222.73-14.5 222.6-16.24 222.48-17.97 222.48-19.68L222.48-19.68Q222.48-20.75 222.58-22.07 222.68-23.39 223.12-24.54 223.56-25.68 224.41-26.46 225.27-27.25 226.78-27.25L226.78-27.25Q227.61-27.25 228.2-26.71 228.78-26.17 229.15-25.39 229.51-24.61 229.71-23.73 229.9-22.85 229.95-22.12L229.95-22.12Q231.12-24.02 232.59-25.22 234.05-26.42 236.4-26.51L236.4-26.51Q237.57-26.56 238.72-26.29 239.87-26.03 240.82-25.42 241.77-24.8 242.38-23.83 242.99-22.85 243.04-21.53L243.04-21.53Q243.14-19.97 242.11-19.14 241.09-18.31 239.62-18.26Z" opacity="1" transform="matrix(1,0,0,1,0,0)" fill="#ea3c12" class="undefined-text-0" data-fill-palette-color="primary" id="text-0"></path></svg></g></svg></g><g transform="matrix(1,0,0,1,0,63.08837245900658)"><svg viewBox="0 0 316.416 31.542246738603502" height="31.542246738603502" width="316.416"><g transform="matrix(1,0,0,1,0,0)"><svg width="316.416" viewBox="4 -37.3 492.05 49.05" height="31.542246738603502" data-palette-color="#3d9970"><path d="M22.85 0.05L22.85 0.05Q22.3 0.05 21.93-0.58 21.55-1.2 21.25-1.7L21.25-1.7 13.4-17.05 6.5-17.05 6.5-1.05Q6.5-0.55 6.1-0.28 5.7 0 5.25 0L5.25 0Q4.75 0 4.38-0.28 4-0.55 4-1.05L4-1.05 4-35.55Q4-35.95 4.28-36.23 4.55-36.5 5.05-36.55L5.05-36.55 13.65-36.55Q16.45-36.55 18.85-35.68 21.25-34.8 22.7-32.68 24.15-30.55 24.15-26.85L24.15-26.85Q24.15-23.7 23.08-21.7 22-19.7 20.18-18.68 18.35-17.65 16.05-17.3L16.05-17.3 24.05-1.8Q24.15-1.65 24.18-1.5 24.2-1.35 24.2-1.25L24.2-1.25Q24.2-0.9 24-0.63 23.8-0.35 23.5-0.15 23.2 0.05 22.85 0.05ZM6.5-34.15L6.5-19.35 13.65-19.35Q17.2-19.35 19.43-21.08 21.65-22.8 21.65-26.8L21.65-26.8Q21.65-30.75 19.43-32.45 17.2-34.15 13.65-34.15L13.65-34.15 6.5-34.15ZM87.65 0.3L87.65 0.3Q84.6 0.3 82.27-0.85 79.95-2 78.6-4.08 77.25-6.15 77.25-8.95L77.25-8.95 77.25-14.9Q77.25-17.35 78.52-19.4 79.8-21.45 81.87-22.68 83.95-23.9 86.45-23.9L86.45-23.9Q88.9-23.9 90.95-22.73 93-21.55 94.27-19.53 95.55-17.5 95.55-14.85L95.55-14.85Q95.55-13 94.92-12.18 94.3-11.35 93.35-11.18 92.4-11 91.3-11L91.3-11 79.7-11 79.7-8.9Q79.7-5.7 82-3.83 84.3-1.95 87.75-1.95L87.75-1.95Q89.8-1.95 90.9-2.45 92-2.95 92.6-3.45 93.2-3.95 93.7-3.95L93.7-3.95Q94.05-3.95 94.3-3.75 94.55-3.55 94.7-3.28 94.85-3 94.85-2.75L94.85-2.75Q94.85-2.25 93.97-1.5 93.1-0.75 91.5-0.23 89.9 0.3 87.65 0.3ZM79.7-15.1L79.7-13.05 90.35-13.05Q92.05-13.05 92.6-13.4 93.15-13.75 93.15-14.85L93.15-14.85Q93.15-16.55 92.32-18.13 91.5-19.7 89.97-20.7 88.45-21.7 86.45-21.7L86.45-21.7Q84.55-21.7 83.02-20.8 81.5-19.9 80.6-18.4 79.7-16.9 79.7-15.1L79.7-15.1ZM158.75 0.3L158.75 0.3Q155.55 0.3 153.47-0.9 151.4-2.1 150.37-4.2 149.35-6.3 149.35-8.95L149.35-8.95 149.35-14.65Q149.35-17.25 150.35-19.38 151.35-21.5 153.45-22.7 155.55-23.9 158.75-23.9L158.75-23.9Q160.8-23.9 162.32-23.38 163.85-22.85 164.7-22.15 165.55-21.45 165.55-20.85L165.55-20.85Q165.55-20.6 165.37-20.3 165.2-20 164.95-19.83 164.7-19.65 164.4-19.65L164.4-19.65Q163.95-19.65 163.37-20.15 162.8-20.65 161.77-21.13 160.75-21.6 158.85-21.6L158.85-21.6Q155.4-21.6 153.6-19.73 151.8-17.85 151.8-14.65L151.8-14.65 151.8-8.95Q151.8-5.75 153.6-3.88 155.4-2 158.9-2L158.9-2Q160.9-2 161.97-2.5 163.05-3 163.62-3.5 164.2-4 164.7-4L164.7-4Q165.05-4 165.27-3.8 165.5-3.6 165.67-3.35 165.85-3.1 165.85-2.8L165.85-2.8Q165.85-2.25 164.97-1.5 164.1-0.75 162.52-0.23 160.95 0.3 158.75 0.3ZM221.2 0L221.2 0Q220.7 0 220.35-0.33 220-0.65 220-1.05L220-1.05 220-22.6Q220-23.05 220.35-23.33 220.7-23.6 221.2-23.6L221.2-23.6Q221.75-23.6 222.1-23.33 222.45-23.05 222.45-22.6L222.45-22.6 222.45-1.05Q222.45-0.65 222.1-0.33 221.75 0 221.2 0ZM221.2-31.05L221.2-31.05Q220.45-31.05 219.87-31.6 219.3-32.15 219.3-32.9L219.3-32.9Q219.3-33.65 219.87-34.15 220.45-34.65 221.2-34.65L221.2-34.65Q222-34.65 222.52-34.15 223.05-33.65 223.05-32.9L223.05-32.9Q223.05-32.15 222.52-31.6 222-31.05 221.2-31.05ZM279.75 11.75L279.75 11.75Q279.25 11.75 278.9 11.4 278.55 11.05 278.55 10.65L278.55 10.65 278.55-22.6Q278.55-23.05 278.9-23.33 279.25-23.6 279.75-23.6L279.75-23.6Q280.3-23.6 280.62-23.33 280.95-23.05 280.95-22.6L280.95-22.6 280.95-20.1Q281.8-21.55 283.5-22.73 285.2-23.9 287.65-23.9L287.65-23.9Q290.1-23.9 292.15-22.68 294.2-21.45 295.42-19.38 296.65-17.3 296.65-14.75L296.65-14.75 296.65-8.95Q296.65-6.55 295.42-4.42 294.2-2.3 292.17-1 290.15 0.3 287.8 0.3L287.8 0.3Q285.5 0.3 283.67-0.83 281.85-1.95 281-3.5L281-3.5 281 10.65Q281 11.05 280.65 11.4 280.3 11.75 279.75 11.75ZM287.55-2L287.55-2Q289.35-2 290.85-3 292.35-4 293.27-5.6 294.2-7.2 294.2-8.95L294.2-8.95 294.2-14.75Q294.2-16.5 293.27-18.05 292.35-19.6 290.85-20.6 289.35-21.6 287.5-21.6L287.5-21.6Q285.9-21.6 284.4-20.78 282.9-19.95 281.95-18.43 281-16.9 281-14.75L281-14.75 281-7.25Q281-6.45 281.85-5.2 282.7-3.95 284.2-2.98 285.7-2 287.55-2ZM361.35 0.3L361.35 0.3Q358.3 0.3 355.97-0.85 353.65-2 352.3-4.08 350.95-6.15 350.95-8.95L350.95-8.95 350.95-14.9Q350.95-17.35 352.22-19.4 353.5-21.45 355.57-22.68 357.65-23.9 360.15-23.9L360.15-23.9Q362.6-23.9 364.65-22.73 366.7-21.55 367.97-19.53 369.25-17.5 369.25-14.85L369.25-14.85Q369.25-13 368.62-12.18 368-11.35 367.05-11.18 366.1-11 365-11L365-11 353.4-11 353.4-8.9Q353.4-5.7 355.7-3.83 358-1.95 361.45-1.95L361.45-1.95Q363.5-1.95 364.6-2.45 365.7-2.95 366.3-3.45 366.9-3.95 367.4-3.95L367.4-3.95Q367.75-3.95 368-3.75 368.25-3.55 368.4-3.28 368.55-3 368.55-2.75L368.55-2.75Q368.55-2.25 367.67-1.5 366.8-0.75 365.2-0.23 363.6 0.3 361.35 0.3ZM353.4-15.1L353.4-13.05 364.05-13.05Q365.75-13.05 366.3-13.4 366.85-13.75 366.85-14.85L366.85-14.85Q366.85-16.55 366.02-18.13 365.2-19.7 363.67-20.7 362.15-21.7 360.15-21.7L360.15-21.7Q358.25-21.7 356.72-20.8 355.2-19.9 354.3-18.4 353.4-16.9 353.4-15.1L353.4-15.1ZM429.95 0.3L429.95 0.3Q427.65 0.3 425.97-0.28 424.3-0.85 423.35-1.63 422.4-2.4 422.4-3.1L422.4-3.1Q422.4-3.35 422.52-3.6 422.65-3.85 422.87-4.05 423.1-4.25 423.3-4.25L423.3-4.25Q423.8-4.25 424.45-3.68 425.1-3.1 426.35-2.5 427.6-1.9 429.9-1.9L429.9-1.9Q432.9-1.9 434.15-3.05 435.4-4.2 435.4-5.75L435.4-5.75Q435.4-7.55 434.52-8.58 433.65-9.6 432.2-10.15 430.75-10.7 429.17-11.13 427.6-11.55 426.15-12.2 424.7-12.85 423.8-14.05 422.9-15.25 422.9-17.3L422.9-17.3Q422.9-18.8 423.7-20.35 424.5-21.9 426.17-22.9 427.85-23.9 430.55-23.9L430.55-23.9Q432.15-23.9 433.6-23.58 435.05-23.25 436-22.73 436.95-22.2 436.95-21.65L436.95-21.65Q436.95-21.45 436.8-21.13 436.65-20.8 436.42-20.58 436.2-20.35 435.85-20.35L435.85-20.35Q435.5-20.35 434.85-20.7 434.2-21.05 433.15-21.38 432.1-21.7 430.6-21.7L430.6-21.7Q428.65-21.7 427.47-21 426.3-20.3 425.77-19.3 425.25-18.3 425.25-17.35L425.25-17.35Q425.25-15.85 426.15-15 427.05-14.15 428.47-13.68 429.9-13.2 431.5-12.75 433.1-12.3 434.52-11.55 435.95-10.8 436.85-9.47 437.75-8.15 437.75-5.85L437.75-5.85Q437.75-3.05 435.7-1.38 433.65 0.3 429.95 0.3ZM494-7.75L494-7.75Q493.65-7.75 493.32-8.03 493-8.3 493-8.7L493-8.7Q493-13.05 492.87-17.6 492.75-22.15 492.6-26.7 492.45-31.25 492.45-35.6L492.45-35.6Q492.45-36.4 492.9-36.85 493.35-37.3 494-37.3L494-37.3Q494.65-37.3 495.12-36.85 495.6-36.4 495.6-35.6L495.6-35.6Q495.6-31.25 495.47-26.7 495.35-22.15 495.2-17.6 495.05-13.05 495.05-8.7L495.05-8.7Q495.05-8.3 494.7-8.03 494.35-7.75 494-7.75ZM494.05 0.3L494.05 0.3Q493.15 0.3 492.57-0.33 492-0.95 492-1.75L492-1.75Q492-2.6 492.57-3.2 493.15-3.8 494.05-3.8L494.05-3.8Q494.85-3.8 495.45-3.2 496.05-2.6 496.05-1.75L496.05-1.75Q496.05-0.95 495.45-0.33 494.85 0.3 494.05 0.3Z" opacity="1" transform="matrix(1,0,0,1,0,0)" fill="#3d9970" class="undefined-text-1" data-fill-palette-color="secondary" id="text-1"></path></svg></g></svg></g></svg></g></svg></g></svg></g></svg></g></svg></g><g mask="url(#722ae1ac-9d76-4062-9471-d2b052b0f8b4)"><g transform="matrix(4.6943503149350025, 0, 0, 4.6943503149350025, 46.543240480156186, 0.9999999999999858)"><svg xmlns="http://www.w3.org/2000/svg" xmlns:xlink="http://www.w3.org/1999/xlink" version="1.1" x="0" y="0" viewBox="17.037 24.562 64.42500000000001 52.233000000000004" enable-background="new 0 0 100 100" xml:space="preserve" height="52.233000000000004" width="64.42500000000001" class="icon-none" data-fill-palette-color="accent" id="none"><path d="M81.462 50.68c0 3.245-2.579 5.877-5.762 5.877H22.799c-3.184 0-5.762-2.632-5.762-5.877l0 0c0-3.25 2.578-5.881 5.762-5.881H75.7C78.883 44.799 81.462 47.43 81.462 50.68L81.462 50.68z" fill="#ea9937" data-fill-palette-color="accent"></path><path d="M79.334 58.905c-0.352 9.929-10.188 17.89-22.278 17.89H41.443c-12.09 0-21.926-7.961-22.279-17.89H79.334z" fill="#ea9937" data-fill-palette-color="accent"></path><path d="M57.056 24.562H41.443c-12.09 0-21.926 7.96-22.279 17.89h60.17C78.982 32.521 69.146 24.562 57.056 24.562zM27.906 38.511c-0.496 0-0.898-0.402-0.898-0.898s0.402-0.898 0.898-0.898 0.898 0.402 0.898 0.898S28.402 38.511 27.906 38.511zM35.077 35.782c-0.497 0-0.899-0.401-0.899-0.897s0.402-0.898 0.899-0.898c0.496 0 0.897 0.402 0.897 0.898S35.573 35.782 35.077 35.782zM41.75 29.912c0-0.496 0.4-0.897 0.897-0.897s0.899 0.401 0.899 0.897c0 0.497-0.402 0.898-0.899 0.898S41.75 30.409 41.75 29.912zM43.547 38.511c-0.497 0-0.899-0.402-0.899-0.898s0.402-0.898 0.899-0.898c0.494 0 0.897 0.402 0.897 0.898S44.041 38.511 43.547 38.511zM51.116 34.404c-0.497 0-0.898-0.4-0.898-0.897 0-0.496 0.401-0.898 0.898-0.898 0.495 0 0.897 0.402 0.897 0.898C52.014 34.004 51.611 34.404 51.116 34.404zM56.302 38.511c-0.496 0-0.898-0.402-0.898-0.898s0.402-0.898 0.898-0.898c0.495 0 0.898 0.402 0.898 0.898S56.797 38.511 56.302 38.511zM57.2 29.912c-0.496 0-0.898-0.4-0.898-0.897 0-0.496 0.402-0.897 0.898-0.897 0.495 0 0.899 0.401 0.899 0.897C58.1 29.512 57.695 29.912 57.2 29.912zM65.874 38.511c-0.497 0-0.899-0.402-0.899-0.898s0.402-0.898 0.899-0.898c0.495 0 0.897 0.402 0.897 0.898S66.369 38.511 65.874 38.511zM71.029 35.782c-0.496 0-0.899-0.401-0.899-0.897s0.403-0.898 0.899-0.898 0.898 0.402 0.898 0.898S71.525 35.782 71.029 35.782z" fill="#ea9937" data-fill-palette-color="accent"></path></svg></g></g></svg></g><defs><mask id="722ae1ac-9d76-4062-9471-d2b052b0f8b4"><rect width="640" height="400" fill="white"></rect><rect width="348.05760000000004" height="118.72889570590314" fill="black" x="145.97119999999998" y="140.63555214704843" id="transform-me" transform="matrix(1,0,0,1,-122.24000000000001,-76.4)"></rect></mask></defs></svg><rect width="395.52" height="247.2" fill="none" stroke="none" visibility="hidden"></rect></g></svg></g></svg>