<svg xmlns="http://www.w3.org/2000/svg" version="1.1" xmlns:xlink="http://www.w3.org/1999/xlink" xmlns:svgjs="http://svgjs.dev/svgjs" width="2000" height="1500" viewBox="0 0 2000 1500"><rect width="2000" height="1500" fill="#ffffff"></rect><g transform="matrix(0.75,0,0,0.75,249.090909090909,282.7536437246963)"><svg viewBox="0 0 396 247" data-background-color="#ffffff" preserveAspectRatio="xMidYMid meet" height="1247" width="2000" xmlns="http://www.w3.org/2000/svg" xmlns:xlink="http://www.w3.org/1999/xlink"><g id="tight-bounds" transform="matrix(1,0,0,1,0.2400000000000091,-0.09999999999999432)"><svg viewBox="0 0 395.52 247.2" height="247.2" width="395.52"><g><svg></svg></g><g><svg viewBox="0 0 395.52 247.2" height="247.2" width="395.52"><g transform="matrix(1,0,0,1,0,74.52379076775118)"><svg viewBox="0 0 395.52 98.15241846449763" height="98.15241846449763" width="395.52"><g><svg viewBox="0 0 395.52 98.15241846449763" height="98.15241846449763" width="395.52"><g><svg viewBox="0 0 395.52000000000004 98.15241846449764" height="98.15241846449763" width="395.52"><g><svg viewBox="0 0 395.52000000000004 98.15241846449764" height="98.15241846449764" width="395.52000000000004"><g><svg viewBox="0 0 395.52000000000004 98.15241846449764" height="98.15241846449764" width="395.52000000000004"><g><svg viewBox="0 0 395.52000000000004 52.93872444522104" height="52.93872444522104" width="395.52000000000004"><g transform="matrix(1,0,0,1,0,0)"><svg width="395.52000000000004" viewBox="2.6 -37.7 286.12 38.300000000000004" height="52.93872444522104" data-palette-color="#ea3c12"><path d="M11 0L2.6 0 2.6-24.65Q2.6-27.55 4.03-29.9 5.45-32.25 7.88-33.63 10.3-35 13.3-35L13.3-35 26.35-35 26.35-28 14.35-28Q12.95-28 11.98-27 11-26 11-24.55L11-24.55 11-19.5 24.65-19.5 24.65-12.55 11-12.55 11 0ZM38.5 0L30.75 0 30.75-36.5 38.5-36.5 38.5 0ZM54.55 0.6L54.55 0.6Q51.14 0.6 48.55-1.15 45.95-2.9 44.49-5.88 43.05-8.85 43.05-12.6L43.05-12.6Q43.05-16.5 44.74-19.58 46.45-22.65 49.57-24.45 52.7-26.25 56.95-26.25L56.95-26.25Q61.25-26.25 64.27-24.48 67.3-22.7 68.92-19.63 70.55-16.55 70.55-12.75L70.55-12.75 70.55 0 62.95 0 62.95-4.1 62.75-4.1Q62.05-2.75 60.95-1.68 59.84-0.6 58.27 0 56.7 0.6 54.55 0.6ZM56.84-6.1L56.84-6.1Q58.59-6.1 59.92-6.98 61.25-7.85 61.95-9.4 62.64-10.95 62.64-12.85L62.64-12.85Q62.64-14.7 61.95-16.2 61.25-17.7 59.92-18.57 58.59-19.45 56.84-19.45L56.84-19.45Q55.05-19.45 53.7-18.57 52.34-17.7 51.64-16.2 50.95-14.7 50.95-12.85L50.95-12.85Q50.95-10.95 51.64-9.4 52.34-7.85 53.7-6.98 55.05-6.1 56.84-6.1ZM85.99 0.6L85.99 0.6Q83.69 0.6 81.79-0.6 79.89-1.8 79.19-3.85L79.19-3.85 71.89-25.65 80.39-25.65 85.54-7.35Q85.64-7.15 85.77-7.05 85.89-6.95 86.04-6.95L86.04-6.95Q86.24-6.95 86.37-7.05 86.49-7.15 86.54-7.35L86.54-7.35 91.79-25.65 100.09-25.65 92.79-3.85Q92.09-1.8 90.22-0.6 88.34 0.6 85.99 0.6ZM115.19 0.6L115.19 0.6Q111.24 0.6 108.09-1.15 104.94-2.9 103.12-5.95 101.29-9 101.29-12.8L101.29-12.8Q101.29-16.65 103.12-19.68 104.94-22.7 108.09-24.48 111.24-26.25 115.19-26.25L115.19-26.25Q119.14-26.25 122.27-24.48 125.39-22.7 127.22-19.68 129.04-16.65 129.04-12.8L129.04-12.8Q129.04-9 127.22-5.95 125.39-2.9 122.24-1.15 119.09 0.6 115.19 0.6ZM115.19-6.15L115.19-6.15Q117.04-6.15 118.39-7.05 119.74-7.95 120.49-9.45 121.24-10.95 121.24-12.85L121.24-12.85Q121.24-14.7 120.49-16.2 119.74-17.7 118.39-18.6 117.04-19.5 115.19-19.5L115.19-19.5Q113.34-19.5 111.97-18.6 110.59-17.7 109.84-16.2 109.09-14.7 109.09-12.85L109.09-12.85Q109.09-10.95 109.84-9.45 110.59-7.95 111.97-7.05 113.34-6.15 115.19-6.15ZM141.19 0L133.44 0 133.44-18.1Q133.44-21.6 135.44-23.6 137.44-25.6 140.99-25.6L140.99-25.6 148.44-25.6 148.44-19.3 142.89-19.3Q142.19-19.3 141.69-18.82 141.19-18.35 141.19-17.6L141.19-17.6 141.19 0ZM178.13 0L165.28 0 165.28-35 178.13-35Q183.68-35 187.76-32.75 191.83-30.5 194.11-26.55 196.38-22.6 196.38-17.5L196.38-17.5Q196.38-12.4 194.11-8.45 191.83-4.5 187.76-2.25 183.68 0 178.13 0L178.13 0ZM173.68-28L173.68-7 177.93-7Q180.83-7 183.11-8.28 185.38-9.55 186.68-11.9 187.98-14.25 187.98-17.5L187.98-17.5Q187.98-20.75 186.68-23.1 185.38-25.45 183.11-26.73 180.83-28 177.93-28L177.93-28 173.68-28ZM208.48 0L200.68 0 200.68-25.65 208.48-25.65 208.48 0ZM204.58-28.55L204.58-28.55Q202.73-28.55 201.38-29.9 200.03-31.25 200.03-33.1L200.03-33.1Q200.03-34.95 201.38-36.33 202.73-37.7 204.58-37.7L204.58-37.7Q206.43-37.7 207.78-36.33 209.13-34.95 209.13-33.1L209.13-33.1Q209.13-31.25 207.78-29.9 206.43-28.55 204.58-28.55ZM221.93 0L214.18 0 214.18-14.75Q214.18-17.95 215.73-20.55 217.28-23.15 220.15-24.7 223.03-26.25 226.98-26.25L226.98-26.25Q230.98-26.25 233.8-24.7 236.63-23.15 238.13-20.55 239.63-17.95 239.63-14.75L239.63-14.75 239.63 0 231.88 0 231.88-14.55Q231.88-15.9 231.23-17.03 230.58-18.15 229.45-18.82 228.33-19.5 226.93-19.5L226.93-19.5Q225.48-19.5 224.35-18.82 223.23-18.15 222.58-17.03 221.93-15.9 221.93-14.55L221.93-14.55 221.93 0ZM266.43 0L258.83 0Q254.48 0 251.18-1.63 247.88-3.25 246.05-6.13 244.23-9 244.23-12.8L244.23-12.8Q244.23-17 245.98-20 247.73-23 250.65-24.63 253.58-26.25 257.13-26.25L257.13-26.25Q261.18-26.25 263.9-24.55 266.63-22.85 268.03-19.93 269.43-17 269.43-13.25L269.43-13.25Q269.43-12.6 269.35-11.73 269.28-10.85 269.18-10.35L269.18-10.35 252.38-10.35Q252.68-9.05 253.53-8.15 254.38-7.25 255.68-6.83 256.98-6.4 258.58-6.4L258.58-6.4 266.43-6.4 266.43 0ZM252.18-15.2L252.18-15.2 261.93-15.2Q261.83-16 261.63-16.75 261.43-17.5 261-18.07 260.58-18.65 260.03-19.07 259.48-19.5 258.75-19.75 258.03-20 257.13-20L257.13-20Q255.98-20 255.08-19.6 254.18-19.2 253.58-18.53 252.98-17.85 252.65-16.98 252.33-16.1 252.18-15.2ZM281.47 0L273.72 0 273.72-18.1Q273.72-21.6 275.72-23.6 277.72-25.6 281.27-25.6L281.27-25.6 288.72-25.6 288.72-19.3 283.17-19.3Q282.47-19.3 281.97-18.82 281.47-18.35 281.47-17.6L281.47-17.6 281.47 0Z" opacity="1" transform="matrix(1,0,0,1,0,0)" fill="#ea3c12" class="undefined-text-0" data-fill-palette-color="primary" id="text-0"></path></svg></g></svg></g><g transform="matrix(1,0,0,1,0,65.43628675735104)"><svg viewBox="0 0 395.52000000000004 32.7161317071466" height="32.7161317071466" width="395.52000000000004"><g transform="matrix(1,0,0,1,0,0)"><svg width="395.52000000000004" viewBox="2.65 -36.8 565.7900000000001 46.8" height="32.7161317071466" data-palette-color="#3d9970"><path d="M2.65 0L2.65-1.75 6.6-1.75 6.6-33.15 2.65-33.15 2.65-34.9 18.8-34.9Q23.3-34.9 25.75-32.52 28.2-30.15 28.2-25.7L28.2-25.7Q28.2-21.9 26.13-19.48 24.05-17.05 20-16.65L20-16.65 26.15-5.15Q27.9-1.75 31.35-1.75L31.35-1.75 32.1-1.75 32.1 0 29.65 0Q27.15 0 25.78-1.07 24.4-2.15 23.3-4.2L23.3-4.2 16.85-16.25 9.65-16.25 9.65-1.75 13.6-1.75 13.6 0 2.65 0ZM9.65-33.05L9.65-18.1 18.55-18.1Q20.1-18.1 21.3-18.63 22.5-19.15 23.3-20.03 24.1-20.9 24.53-22.05 24.95-23.2 24.95-24.5L24.95-24.5 24.95-26.65Q24.95-27.95 24.53-29.1 24.1-30.25 23.3-31.13 22.5-32 21.3-32.52 20.1-33.05 18.55-33.05L18.55-33.05 9.65-33.05ZM100.49 0.6L100.49 0.6Q95.29 0.6 92.24-2.9 89.19-6.4 89.19-12.8L89.19-12.8Q89.19-15.85 90.02-18.35 90.84-20.85 92.34-22.58 93.84-24.3 95.89-25.25 97.94-26.2 100.39-26.2L100.39-26.2Q102.79-26.2 104.72-25.3 106.64-24.4 107.99-22.83 109.34-21.25 110.07-19.03 110.79-16.8 110.79-14.2L110.79-14.2 110.79-13.35 92.39-13.35 92.39-11.75Q92.39-6.9 94.74-4.3 97.09-1.7 100.89-1.7L100.89-1.7Q104.04-1.7 106.02-3.1 107.99-4.5 109.04-6.55L109.04-6.55 110.29-5.8Q109.79-4.6 108.94-3.45 108.09-2.3 106.87-1.4 105.64-0.5 104.07 0.05 102.49 0.6 100.49 0.6ZM92.39-15.4L92.39-15.05 107.74-15.05 107.74-15.35Q107.74-17.3 107.29-18.95 106.84-20.6 105.92-21.83 104.99-23.05 103.62-23.73 102.24-24.4 100.39-24.4L100.39-24.4Q98.54-24.4 97.07-23.75 95.59-23.1 94.54-21.9 93.49-20.7 92.94-19.05 92.39-17.4 92.39-15.4L92.39-15.4ZM181.33 0.6L181.33 0.6Q178.68 0.6 176.58-0.33 174.48-1.25 173.01-2.98 171.53-4.7 170.76-7.18 169.98-9.65 169.98-12.8L169.98-12.8Q169.98-15.95 170.81-18.45 171.63-20.95 173.16-22.68 174.68-24.4 176.81-25.3 178.93-26.2 181.53-26.2L181.53-26.2Q183.33-26.2 184.83-25.8 186.33-25.4 187.43-24.7 188.53-24 189.13-23.05 189.73-22.1 189.73-21L189.73-21Q189.73-19.8 189.11-19.13 188.48-18.45 187.33-18.45L187.33-18.45Q186.18-18.45 185.58-19.13 184.98-19.8 184.98-20.8L184.98-20.8Q184.98-21.65 185.46-22.28 185.93-22.9 186.73-23.3L186.73-23.3 186.73-23.4Q185.08-24.4 181.83-24.4L181.83-24.4Q179.83-24.4 178.23-23.7 176.63-23 175.51-21.73 174.38-20.45 173.78-18.68 173.18-16.9 173.18-14.8L173.18-14.8 173.18-11.6Q173.18-9.35 173.78-7.53 174.38-5.7 175.51-4.4 176.63-3.1 178.21-2.4 179.78-1.7 181.68-1.7L181.68-1.7Q183.28-1.7 184.51-2.08 185.73-2.45 186.66-3.1 187.58-3.75 188.26-4.65 188.93-5.55 189.48-6.55L189.48-6.55 190.73-5.8Q190.23-4.6 189.46-3.45 188.68-2.3 187.53-1.4 186.38-0.5 184.86 0.05 183.33 0.6 181.33 0.6ZM254.67-32.4L254.67-32.4Q253.67-32.4 253.12-33.02 252.57-33.65 252.57-34.5L252.57-34.5 252.57-34.7Q252.57-35.55 253.12-36.18 253.67-36.8 254.67-36.8L254.67-36.8Q255.67-36.8 256.22-36.18 256.77-35.55 256.77-34.7L256.77-34.7 256.77-34.5Q256.77-33.65 256.22-33.02 255.67-32.4 254.67-32.4ZM249.32 0L249.32-1.75 253.22-1.75 253.22-23.2 249.32-23.7 249.32-25 256.12-26.1 256.12-1.75 260.02-1.75 260.02 0 249.32 0ZM317.56 10L317.56 8.25 321.46 8.25 321.46-23.2 317.56-23.7 317.56-25 324.36-26.1 324.36-21.55 324.56-21.55Q325.41-23.45 327.31-24.83 329.21-26.2 332.41-26.2L332.41-26.2Q337.31-26.2 340.14-22.8 342.96-19.4 342.96-12.8L342.96-12.8Q342.96-6.2 340.14-2.8 337.31 0.6 332.41 0.6L332.41 0.6Q329.26 0.6 327.31-0.78 325.36-2.15 324.56-4L324.56-4 324.36-4 324.36 8.25 329.26 8.25 329.26 10 317.56 10ZM331.66-1.5L331.66-1.5Q335.56-1.5 337.69-4.08 339.81-6.65 339.81-11.05L339.81-11.05 339.81-14.55Q339.81-18.95 337.69-21.53 335.56-24.1 331.66-24.1L331.66-24.1Q330.26-24.1 328.96-23.7 327.66-23.3 326.64-22.55 325.61-21.8 324.99-20.75 324.36-19.7 324.36-18.35L324.36-18.35 324.36-7.25Q324.36-5.9 324.99-4.85 325.61-3.8 326.64-3.05 327.66-2.3 328.96-1.9 330.26-1.5 331.66-1.5ZM414.1 0.6L414.1 0.6Q408.9 0.6 405.85-2.9 402.8-6.4 402.8-12.8L402.8-12.8Q402.8-15.85 403.63-18.35 404.45-20.85 405.95-22.58 407.45-24.3 409.5-25.25 411.55-26.2 414-26.2L414-26.2Q416.4-26.2 418.33-25.3 420.25-24.4 421.6-22.83 422.95-21.25 423.68-19.03 424.4-16.8 424.4-14.2L424.4-14.2 424.4-13.35 406-13.35 406-11.75Q406-6.9 408.35-4.3 410.7-1.7 414.5-1.7L414.5-1.7Q417.65-1.7 419.63-3.1 421.6-4.5 422.65-6.55L422.65-6.55 423.9-5.8Q423.4-4.6 422.55-3.45 421.7-2.3 420.48-1.4 419.25-0.5 417.68 0.05 416.1 0.6 414.1 0.6ZM406-15.4L406-15.05 421.35-15.05 421.35-15.35Q421.35-17.3 420.9-18.95 420.45-20.6 419.53-21.83 418.6-23.05 417.23-23.73 415.85-24.4 414-24.4L414-24.4Q412.15-24.4 410.68-23.75 409.2-23.1 408.15-21.9 407.1-20.7 406.55-19.05 406-17.4 406-15.4L406-15.4ZM493.2 0.6L493.2 0.6Q490.55 0.6 488.82-0.38 487.1-1.35 486.4-2.65L486.4-2.65 486.25-2.65 486.25 0 484.05 0 484.05-7.55 486.25-7.55 486.25-6.2Q486.25-3.85 487.95-2.55 489.65-1.25 492.75-1.25L492.75-1.25Q495.9-1.25 497.6-2.45 499.3-3.65 499.3-6.15L499.3-6.15Q499.3-8.3 498.02-9.5 496.75-10.7 494.25-11.25L494.25-11.25 491.6-11.8Q488.1-12.6 486.17-14.33 484.25-16.05 484.25-19.35L484.25-19.35Q484.25-22.65 486.57-24.43 488.9-26.2 492.65-26.2L492.65-26.2Q495.25-26.2 496.82-25.35 498.4-24.5 498.95-23.25L498.95-23.25 499.15-23.25 499.15-25.6 501.35-25.6 501.35-18.05 499.15-18.05 499.15-19.85Q499.15-22.1 497.57-23.23 496-24.35 493-24.35L493-24.35Q490.2-24.35 488.6-23.23 487-22.1 487-19.8L487-19.8Q487-17.6 488.32-16.43 489.65-15.25 492.05-14.7L492.05-14.7 494.6-14.15Q498.25-13.35 500.17-11.65 502.1-9.95 502.1-6.65L502.1-6.65Q502.1-3.45 499.75-1.43 497.4 0.6 493.2 0.6ZM565.99 0.45L565.99 0.45Q564.84 0.45 564.19-0.23 563.54-0.9 563.54-1.9L563.54-1.9 563.54-2.15Q563.54-3.15 564.19-3.83 564.84-4.5 565.99-4.5L565.99-4.5Q567.14-4.5 567.79-3.83 568.44-3.15 568.44-2.15L568.44-2.15 568.44-1.9Q568.44-0.9 567.79-0.23 567.14 0.45 565.99 0.45ZM565.34-9.05L564.49-22.95 564.49-34.9 567.49-34.9 567.49-22.95 566.64-9.05 565.34-9.05Z" opacity="1" transform="matrix(1,0,0,1,0,0)" fill="#3d9970" class="undefined-text-1" data-fill-palette-color="secondary" id="text-1"></path></svg></g></svg></g></svg></g></svg></g></svg></g></svg></g></svg></g><g mask="url(#e593b5fc-df5c-455a-8f88-a1dcf9bcc027)"><g transform="matrix(3.229332666043277, 0, 0, 3.229332666043277, 67.92342614419903, 1.0000000000000142)"><svg xmlns="http://www.w3.org/2000/svg" xmlns:xlink="http://www.w3.org/1999/xlink" version="1.1" x="0" y="0" viewBox="9.793788777499413 14.750999999999998 80.4107766419014 75.929" enable-background="new 0 0 100 100" xml:space="preserve" height="75.929" width="80.4107766419014" class="icon-none" data-fill-palette-color="accent" id="none"><g fill="#ea9937" data-fill-palette-color="accent"><path d="M49.997 90.68L49.997 90.68c-0.463 0-0.888-0.256-1.104-0.664L9.939 16.586c-0.205-0.388-0.192-0.854 0.033-1.23 0.227-0.376 0.633-0.605 1.071-0.605h77.912c0.438 0 0.845 0.229 1.071 0.605 0.226 0.376 0.238 0.843 0.033 1.23l-38.959 73.43C50.885 90.424 50.46 90.68 49.997 90.68zM13.122 17.25l36.875 69.513L86.878 17.25H13.122z" fill="#ea9937" data-fill-palette-color="accent"></path><path d="M37.567 43.123c-3.004 0-5.447-2.443-5.447-5.446 0-3.005 2.443-5.45 5.447-5.45 3.005 0 5.449 2.445 5.449 5.45C43.017 40.68 40.572 43.123 37.567 43.123zM37.567 34.727c-1.625 0-2.947 1.323-2.947 2.95 0 1.625 1.322 2.946 2.947 2.946 1.626 0 2.949-1.321 2.949-2.946C40.517 36.05 39.193 34.727 37.567 34.727z" fill="#ea9937" data-fill-palette-color="accent"></path><path d="M49.983 66.184c-5.959 0-10.807-4.849-10.807-10.809 0-5.959 4.848-10.808 10.807-10.808S60.79 49.416 60.79 55.375C60.79 61.335 55.942 66.184 49.983 66.184zM49.983 47.067c-4.58 0-8.307 3.727-8.307 8.308s3.727 8.309 8.307 8.309 8.307-3.728 8.307-8.309S54.563 47.067 49.983 47.067z" fill="#ea9937" data-fill-palette-color="accent"></path><path d="M71.058 27.928c-2.324 0-3.507-1.345-4.456-2.425-0.885-1.006-1.44-1.575-2.577-1.575-1.136 0-1.69 0.569-2.574 1.574-0.95 1.081-2.132 2.426-4.455 2.426-2.32 0-3.501-1.345-4.449-2.425-0.883-1.006-1.438-1.575-2.572-1.575-1.136 0-1.691 0.569-2.574 1.575-0.949 1.08-2.131 2.425-4.453 2.425s-3.502-1.345-4.451-2.426c-0.883-1.005-1.438-1.574-2.572-1.574s-1.689 0.569-2.572 1.574c-0.949 1.081-2.13 2.426-4.453 2.426-2.322 0-3.502-1.345-4.451-2.426-0.883-1.005-1.438-1.574-2.572-1.574-0.69 0-1.25-0.56-1.25-1.25s0.56-1.25 1.25-1.25c2.322 0 3.502 1.345 4.451 2.426 0.883 1.005 1.438 1.574 2.572 1.574 1.136 0 1.691-0.569 2.574-1.575 0.949-1.08 2.13-2.425 4.451-2.425 2.322 0 3.502 1.345 4.451 2.426 0.883 1.005 1.438 1.574 2.572 1.574 1.136 0 1.691-0.569 2.574-1.575 0.949-1.08 2.131-2.425 4.453-2.425s3.503 1.345 4.451 2.426c0.883 1.006 1.437 1.574 2.57 1.574 1.137 0 1.692-0.569 2.577-1.575 0.948-1.08 2.13-2.425 4.452-2.425 2.323 0 3.505 1.344 4.454 2.424 0.885 1.007 1.441 1.576 2.579 1.576 1.137 0 1.692-0.569 2.577-1.575 0.949-1.08 2.132-2.425 4.456-2.425 0.69 0 1.25 0.56 1.25 1.25s-0.56 1.25-1.25 1.25c-1.138 0-1.694 0.569-2.579 1.576C74.562 26.584 73.381 27.928 71.058 27.928z" fill="#ea9937" data-fill-palette-color="accent"></path><path d="M68.473 43.123c-0.175 0-0.353-0.036-0.521-0.114l-12.939-5.955c-0.302-0.139-0.535-0.392-0.65-0.702-0.114-0.312-0.102-0.655 0.037-0.957l1.832-3.977c0.288-0.626 1.032-0.902 1.658-0.612l12.938 5.957c0.627 0.289 0.901 1.031 0.613 1.658l-1.83 3.975C69.398 42.854 68.945 43.123 68.473 43.123zM57.192 35.306l10.669 4.909 0.784-1.704L57.979 33.6 57.192 35.306z" fill="#ea9937" data-fill-palette-color="accent"></path></g></svg></g></g></svg></g><defs><mask id="e593b5fc-df5c-455a-8f88-a1dcf9bcc027"><rect width="640" height="400" fill="white"></rect><rect width="435.072" height="123.14754308875763" fill="black" x="102.464" y="138.42622845562119" id="transform-me" transform="matrix(1,0,0,1,-122.24000000000001,-76.4)"></rect></mask></defs></svg><rect width="395.52" height="247.2" fill="none" stroke="none" visibility="hidden"></rect></g></svg></g></svg>