<svg xmlns="http://www.w3.org/2000/svg" version="1.1" xmlns:xlink="http://www.w3.org/1999/xlink" xmlns:svgjs="http://svgjs.dev/svgjs" width="2000" height="1247" viewBox="0 0 2000 1247"><g transform="matrix(1,0,0,1,-1.2121212121212466,0.504858299595071)"><svg viewBox="0 0 396 247" data-background-color="#ffffff" preserveAspectRatio="xMidYMid meet" height="1247" width="2000" xmlns="http://www.w3.org/2000/svg" xmlns:xlink="http://www.w3.org/1999/xlink"><g id="tight-bounds" transform="matrix(1,0,0,1,0.2400000000000091,-0.09999999999999432)"><svg viewBox="0 0 395.52 247.2" height="247.2" width="395.52"><g><svg></svg></g><g><svg viewBox="0 0 395.52 247.2" height="247.2" width="395.52"><g transform="matrix(1,0,0,1,39.55199999999999,71.64012008855269)"><svg viewBox="0 0 316.416 103.9197598228946" height="103.9197598228946" width="316.416"><g><svg viewBox="0 0 316.416 103.9197598228946" height="103.9197598228946" width="316.416"><g><svg viewBox="0 0 316.416 103.9197598228946" height="103.9197598228946" width="316.416"><g><svg viewBox="0 0 316.416 103.9197598228946" height="103.9197598228946" width="316.416"><g><svg viewBox="0 0 316.416 103.9197598228946" height="103.9197598228946" width="316.416"><g><svg viewBox="0 0 316.416 51.03923420486004" height="51.03923420486004" width="316.416"><g transform="matrix(1,0,0,1,0,0)"><svg width="316.416" viewBox="1.51 -37.5 241.53884955529205 38.96" height="51.03923420486004" data-palette-color="#ea3c12"><path d="M21.39-35.25L21.39-35.25Q21.39-33.4 20.12-31.88 18.85-30.37 17.02-29.17 15.19-27.98 13.18-27.1 11.18-26.22 9.72-25.63L9.72-25.63Q9.72-24.61 9.67-23.54 9.62-22.46 9.52-21.39L9.52-21.39Q11.08-22.17 13.04-22.85 14.99-23.54 16.75-23.54L16.75-23.54Q18.16-23.54 19.07-22.95 19.97-22.36 19.97-20.9L19.97-20.9Q19.97-19.29 18.82-18.02 17.68-16.75 16.06-15.77 14.45-14.79 12.7-14.11 10.94-13.43 9.72-13.04L9.72-13.04Q9.72-11.43 9.67-9.84 9.62-8.25 9.52-6.69L9.52-6.69Q9.47-5.91 9.35-4.74 9.23-3.56 8.86-2.47 8.5-1.37 7.81-0.56 7.13 0.24 6.05 0.24L6.05 0.24Q5.03 0.24 4.3-0.76 3.56-1.76 3.05-3.32 2.54-4.88 2.22-6.81 1.9-8.74 1.73-10.6 1.56-12.45 1.54-14.01 1.51-15.58 1.51-16.41L1.51-16.41Q1.51-17.04 1.54-18.29 1.56-19.53 1.59-21.04 1.61-22.56 1.68-24.22 1.76-25.88 1.86-27.37 1.95-28.86 2.12-30 2.29-31.15 2.54-31.69L2.54-31.69Q3.08-32.76 5.1-33.81 7.13-34.86 9.62-35.67 12.11-36.47 14.48-36.99 16.85-37.5 18.12-37.5L18.12-37.5Q18.7-37.5 19.26-37.43 19.82-37.35 20.31-37.11 20.8-36.87 21.09-36.43 21.39-35.99 21.39-35.25ZM30.76-29.59L30.76-29.59Q30.76-26.95 30.54-24.29 30.32-21.63 30.32-18.95L30.32-18.95Q30.32-15.48 30.54-12.01 30.76-8.54 30.76-5.03L30.76-5.03Q30.76-4.15 30.66-3.05 30.56-1.95 30.2-1.03 29.83-0.1 29.1 0.54 28.37 1.17 27.15 1.17L27.15 1.17Q25.97 1.17 25.12 0.02 24.27-1.12 23.7-2.91 23.14-4.69 22.78-6.88 22.41-9.08 22.24-11.16 22.07-13.23 21.99-14.97 21.92-16.7 21.92-17.53L21.92-17.53Q21.92-18.46 21.99-20.21 22.07-21.97 22.31-24.02 22.56-26.07 22.97-28.2 23.39-30.32 24.07-32.06 24.75-33.79 25.71-34.89 26.66-35.99 27.98-35.99L27.98-35.99Q29.05-35.99 29.61-35.28 30.17-34.57 30.42-33.57 30.66-32.57 30.71-31.47 30.76-30.37 30.76-29.59ZM55.22-6.88L55.22-6.88Q55.22-6.01 55.15-4.59 55.07-3.17 54.73-1.83 54.39-0.49 53.66 0.49 52.92 1.46 51.61 1.46L51.61 1.46Q49.8 1.46 48.82 0.29 47.85-0.88 47.9-2.64L47.9-2.64Q46.33-1.27 44.36-0.49 42.38 0.29 40.33 0.29L40.33 0.29Q38.91 0.29 37.64-0.39 36.37-1.07 35.4-2.15 34.42-3.22 33.83-4.57 33.25-5.91 33.25-7.23L33.25-7.23Q33.25-9.57 34.69-11.33 36.13-13.09 38.23-14.33 40.33-15.58 42.7-16.31 45.06-17.04 46.92-17.29L46.92-17.29Q46.92-17.53 46.94-17.72 46.97-17.92 46.97-18.16L46.97-18.16Q46.97-19.68 46.14-20.61 45.31-21.53 43.79-21.53L43.79-21.53Q42.57-21.53 41.69-21.12 40.82-20.7 40.03-20.19 39.25-19.68 38.47-19.26 37.69-18.85 36.71-18.85L36.71-18.85Q35.64-18.85 34.88-19.53 34.13-20.21 34.13-21.29L34.13-21.29Q34.13-22.9 35.08-24.22 36.03-25.54 37.47-26.44 38.91-27.34 40.6-27.86 42.28-28.37 43.7-28.37L43.7-28.37Q45.01-28.37 46.33-28.05 47.65-27.73 48.82-27.08 50-26.42 50.95-25.46 51.9-24.51 52.49-23.24L52.49-23.24Q53.36-21.44 53.9-19.41 54.44-17.38 54.73-15.26 55.02-13.13 55.12-11.01 55.22-8.89 55.22-6.88ZM47.41-8.45L47.41-8.45 47.26-11.77Q47.16-11.77 47.07-11.79 46.97-11.82 46.87-11.82L46.87-11.82Q46.24-11.82 45.28-11.5 44.33-11.18 43.45-10.62 42.57-10.06 41.96-9.38 41.35-8.69 41.35-7.96L41.35-7.96Q41.35-7.28 41.84-7.03 42.33-6.79 42.96-6.79L42.96-6.79Q44.04-6.79 45.26-7.35 46.48-7.91 47.41-8.45ZM79.19-17.48L79.19-17.48Q77.92-14.11 76.41-10.45 74.89-6.79 73.14-3.61L73.14-3.61Q72.06-1.66 70.74-0.37 69.43 0.93 67.72 0.93L67.72 0.93Q66.35 0.93 65.06-0.46 63.76-1.86 62.66-3.78 61.56-5.71 60.76-7.69 59.95-9.67 59.56-10.84L59.56-10.84Q59.17-12.16 58.68-13.67 58.2-15.19 57.81-16.75L57.81-16.75Q57.41-18.31 57.17-19.85 56.93-21.39 56.93-22.75L56.93-22.75Q56.93-24.66 57.61-25.88 58.29-27.1 60.3-27.1L60.3-27.1Q61.08-27.1 61.71-26.64 62.35-26.17 62.88-25.34 63.42-24.51 63.91-23.41 64.4-22.31 64.84-21L64.84-21Q65.28-19.73 65.67-18.36 66.06-16.99 66.45-15.72L66.45-15.72Q66.84-14.45 67.25-13.26 67.67-12.06 68.35-10.89L68.35-10.89Q68.69-11.77 69.13-12.89 69.57-14.01 70.09-15.28 70.6-16.55 71.18-17.9 71.77-19.24 72.45-20.51L72.45-20.51Q73.77-23.14 75.26-25 76.75-26.86 78.22-26.86L78.22-26.86Q79.58-26.86 80.17-26.03 80.75-25.2 80.75-23.88L80.75-23.88Q80.75-22.56 80.31-20.9 79.88-19.24 79.19-17.48ZM91.74 1.42L91.74 1.42Q89.25 1.42 87.39 0.1 85.54-1.22 84.27-3.27 83-5.32 82.36-7.84 81.73-10.35 81.73-12.79L81.73-12.79Q81.73-15.38 82.36-18.14 83-20.9 84.32-23.17 85.63-25.44 87.69-26.88 89.74-28.32 92.57-28.32L92.57-28.32Q95.3-28.32 97.23-26.83 99.16-25.34 100.33-23.12 101.5-20.9 101.99-18.26 102.48-15.63 102.33-13.28L102.33-13.28Q102.19-10.69 101.53-8.06 100.87-5.42 99.6-3.32 98.33-1.22 96.38 0.1 94.42 1.42 91.74 1.42ZM92.23-20.65L92.23-20.65Q91.49-20.65 90.93-19.87 90.37-19.09 90-17.97 89.64-16.85 89.44-15.6 89.25-14.36 89.25-13.43L89.25-13.43Q89.25-12.26 89.47-10.89 89.69-9.52 90.08-8.37 90.47-7.23 91.03-6.47 91.59-5.71 92.32-5.71L92.32-5.71Q93.11-5.71 93.67-6.45 94.23-7.18 94.57-8.3 94.91-9.42 95.06-10.77 95.2-12.11 95.2-13.28L95.2-13.28Q95.2-14.36 95.01-15.65 94.81-16.94 94.45-18.07 94.08-19.19 93.52-19.92 92.96-20.65 92.23-20.65ZM121.76-18.26L121.76-18.26Q121.08-18.21 120.59-18.38 120.1-18.55 119.62-18.75L119.62-18.75Q119.18-18.95 118.74-19.12 118.3-19.29 117.76-19.24L117.76-19.24Q116.78-19.19 116.03-18.7 115.27-18.21 114.66-17.48 114.05-16.75 113.61-15.84 113.17-14.94 112.93-14.06L112.93-14.06Q112.78-13.48 112.71-12.28 112.63-11.08 112.63-9.72L112.63-9.72Q112.59-8.3 112.59-7.03 112.59-5.76 112.49-5.03L112.49-5.03Q112.44-4.25 112.24-3.2 112.05-2.15 111.63-1.22 111.22-0.29 110.53 0.34 109.85 0.98 108.78 0.98L108.78 0.98Q107.95 0.98 107.34 0.49 106.73 0 106.31-0.81 105.9-1.61 105.63-2.69 105.36-3.76 105.21-4.88L105.21-4.88Q105.07-6.05 104.99-7.23 104.92-8.4 104.89-9.45 104.87-10.5 104.89-11.38 104.92-12.26 104.92-12.79L104.92-12.79Q104.87-14.5 104.75-16.24 104.63-17.97 104.63-19.68L104.63-19.68Q104.63-20.75 104.72-22.07 104.82-23.39 105.26-24.54 105.7-25.68 106.55-26.46 107.41-27.25 108.92-27.25L108.92-27.25Q109.75-27.25 110.34-26.71 110.93-26.17 111.29-25.39 111.66-24.61 111.85-23.73 112.05-22.85 112.1-22.12L112.1-22.12Q113.27-24.02 114.73-25.22 116.2-26.42 118.54-26.51L118.54-26.51Q119.71-26.56 120.86-26.29 122.01-26.03 122.96-25.42 123.91-24.8 124.52-23.83 125.13-22.85 125.18-21.53L125.18-21.53Q125.28-19.97 124.26-19.14 123.23-18.31 121.76-18.26ZM162.82-21.97L162.82-21.97Q162.82-17.68 161.07-13.7 159.31-9.72 156.35-6.64 153.4-3.56 149.47-1.73 145.54 0.1 141.19 0.1L141.19 0.1 141.1 0.1Q140.22 0.1 139.66-0.71 139.09-1.51 138.7-2.73 138.31-3.96 138.12-5.47 137.92-6.98 137.82-8.42 137.73-9.86 137.73-11.01 137.73-12.16 137.73-12.74L137.73-12.74Q137.73-14.4 137.78-16.04 137.82-17.68 137.92-19.34L137.92-19.34Q137.92-19.87 138-20.92 138.07-21.97 138.17-23.29 138.26-24.61 138.41-26.05 138.56-27.49 138.73-28.74 138.9-29.98 139.07-30.93 139.24-31.88 139.48-32.23L139.48-32.23Q140.12-33.3 141.44-34.13 142.76-34.96 144.29-35.5 145.83-36.04 147.42-36.3 149.01-36.57 150.18-36.57L150.18-36.57Q153.4-36.57 155.77-35.38 158.14-34.18 159.72-32.15 161.31-30.13 162.07-27.49 162.82-24.85 162.82-21.97ZM154.62-20.56L154.62-20.56Q154.62-21.63 154.23-22.75 153.84-23.88 153.13-24.8 152.42-25.73 151.42-26.29 150.42-26.86 149.2-26.86L149.2-26.86Q148.18-26.86 147.1-26.37L147.1-26.37Q146.86-26.22 146.66-25.46 146.47-24.71 146.34-23.63 146.22-22.56 146.13-21.29 146.03-20.02 146-18.87 145.98-17.72 145.95-16.85 145.93-15.97 145.93-15.67L145.93-15.67Q145.93-15.19 145.93-14.23 145.93-13.28 146-12.35 146.08-11.43 146.17-10.74 146.27-10.06 146.52-10.06L146.52-10.06Q147.98-10.06 149.42-11.21 150.86-12.35 152.03-14.01 153.21-15.67 153.91-17.48 154.62-19.29 154.62-20.56ZM173.08-34.08L173.08-34.08Q173.08-33.4 172.71-32.86 172.34-32.32 171.76-31.91 171.17-31.49 170.49-31.27 169.8-31.05 169.22-31.05L169.22-31.05Q168.24-31.05 167.51-31.54 166.78-32.03 166.78-33.06L166.78-33.06Q166.78-33.79 167.14-34.35 167.51-34.91 168.05-35.28 168.58-35.64 169.27-35.84 169.95-36.04 170.59-36.04L170.59-36.04Q171.51-36.04 172.29-35.6 173.08-35.16 173.08-34.08ZM173.47-17.48L173.47-17.48Q173.47-16.8 173.47-16.04 173.47-15.28 173.42-14.6L173.42-14.6Q173.37-13.77 173.37-12.38 173.37-10.99 173.27-9.38 173.17-7.76 172.95-6.1 172.73-4.44 172.25-3.08 171.76-1.71 170.95-0.85 170.15 0 168.93 0.05L168.93 0.05Q168 0.1 167.36-0.68 166.73-1.46 166.31-2.71 165.9-3.96 165.7-5.49 165.51-7.03 165.41-8.47 165.31-9.91 165.31-11.13 165.31-12.35 165.31-12.94L165.31-12.94Q165.31-13.72 165.31-15.16 165.31-16.6 165.41-18.26 165.51-19.92 165.78-21.63 166.04-23.34 166.56-24.76 167.07-26.17 167.9-27.05 168.73-27.93 170-27.93L170-27.93Q171.32-27.93 172-26.61 172.69-25.29 173.03-23.54 173.37-21.78 173.42-20.04 173.47-18.31 173.47-17.48ZM190.8 1.37L190.8 1.37Q189.97 1.37 189.48 0.61 188.99-0.15 188.75-1.12 188.5-2.1 188.43-3.1 188.36-4.1 188.36-4.64L188.36-4.64Q188.36-6.1 188.53-7.57 188.7-9.03 188.92-10.5 189.14-11.96 189.31-13.43 189.48-14.89 189.48-16.36L189.48-16.36Q189.48-16.94 189.43-17.63 189.38-18.31 189.21-18.92 189.04-19.53 188.65-19.92 188.26-20.31 187.62-20.31L187.62-20.31Q187.18-20.31 186.65-19.6 186.11-18.9 185.65-17.99 185.18-17.09 184.87-16.19 184.55-15.28 184.55-14.84L184.55-14.84Q184.55-13.77 184.57-12.67 184.6-11.57 184.6-10.45L184.6-10.45 184.6-7.62Q184.55-6.74 184.45-5.81 184.35-4.88 184.16-4L184.16-4Q184.01-3.13 183.72-2.32 183.42-1.51 182.96-0.9 182.5-0.29 181.86 0.1 181.23 0.49 180.35 0.49L180.35 0.49Q179.37 0.49 178.74-0.15 178.1-0.78 177.71-1.78 177.32-2.78 177.15-4.03 176.98-5.27 176.91-6.47 176.83-7.67 176.86-8.67 176.88-9.67 176.88-10.25L176.88-10.25 176.88-12.55Q176.88-14.4 176.81-16.21 176.74-18.02 176.74-19.82L176.74-19.82Q176.74-20.8 176.76-22.31 176.78-23.83 177.13-25.27 177.47-26.71 178.25-27.73 179.03-28.76 180.54-28.76L180.54-28.76Q181.23-28.76 181.76-28.32 182.3-27.88 182.72-27.25 183.13-26.61 183.4-25.88 183.67-25.15 183.82-24.61L183.82-24.61Q184.3-25.29 184.96-25.93 185.62-26.56 186.45-27.05 187.28-27.54 188.31-27.83 189.33-28.13 190.65-28.13L190.65-28.13Q193.14-28.13 194.53-26.93 195.92-25.73 196.58-23.95 197.24-22.17 197.39-20.12 197.54-18.07 197.54-16.41L197.54-16.41Q197.54-15.58 197.39-13.94 197.24-12.3 196.93-10.33 196.61-8.35 196.07-6.27 195.53-4.2 194.8-2.49 194.07-0.78 193.07 0.29 192.07 1.37 190.8 1.37ZM220.73-8.69L220.73-8.69Q220.73-7.03 219.68-5.44 218.63-3.86 217.04-2.61 215.45-1.37 213.65-0.61 211.84 0.15 210.33 0.15L210.33 0.15Q207.74 0.15 205.71-1.15 203.69-2.44 202.32-4.44 200.95-6.45 200.24-8.86 199.54-11.28 199.54-13.57L199.54-13.57Q199.54-16.02 200.22-18.8 200.9-21.58 202.29-23.93 203.69-26.27 205.81-27.83 207.93-29.39 210.86-29.39L210.86-29.39Q212.52-29.39 214.04-28.83 215.55-28.27 216.67-27.25 217.8-26.22 218.48-24.8 219.16-23.39 219.16-21.63L219.16-21.63Q219.16-19.34 218.19-17.33 217.21-15.33 215.6-13.87 213.99-12.4 211.89-11.5 209.79-10.6 207.59-10.5L207.59-10.5Q207.79-9.08 208.74-8.45 209.69-7.81 211.01-7.81L211.01-7.81Q211.99-7.81 212.91-8.3 213.84-8.79 214.72-9.4 215.6-10.01 216.45-10.5 217.31-10.99 218.19-10.99L218.19-10.99Q219.16-10.99 219.95-10.35 220.73-9.72 220.73-8.69ZM212.82-20.65L212.82-20.65Q212.82-21.29 212.48-21.97 212.13-22.66 211.4-22.66L211.4-22.66Q210.33-22.66 209.59-22.09 208.86-21.53 208.37-20.68 207.89-19.82 207.62-18.85 207.35-17.87 207.3-17.04L207.3-17.04Q207.98-17.19 208.93-17.43 209.89-17.68 210.74-18.09 211.6-18.51 212.21-19.14 212.82-19.78 212.82-20.65ZM239.62-18.26L239.62-18.26Q238.94-18.21 238.45-18.38 237.96-18.55 237.47-18.75L237.47-18.75Q237.03-18.95 236.59-19.12 236.15-19.29 235.62-19.24L235.62-19.24Q234.64-19.19 233.88-18.7 233.13-18.21 232.52-17.48 231.91-16.75 231.47-15.84 231.03-14.94 230.78-14.06L230.78-14.06Q230.64-13.48 230.56-12.28 230.49-11.08 230.49-9.72L230.49-9.72Q230.44-8.3 230.44-7.03 230.44-5.76 230.34-5.03L230.34-5.03Q230.29-4.25 230.1-3.2 229.9-2.15 229.49-1.22 229.07-0.29 228.39 0.34 227.71 0.98 226.63 0.98L226.63 0.98Q225.8 0.98 225.19 0.49 224.58 0 224.17-0.81 223.75-1.61 223.48-2.69 223.21-3.76 223.07-4.88L223.07-4.88Q222.92-6.05 222.85-7.23 222.78-8.4 222.75-9.45 222.73-10.5 222.75-11.38 222.78-12.26 222.78-12.79L222.78-12.79Q222.73-14.5 222.6-16.24 222.48-17.97 222.48-19.68L222.48-19.68Q222.48-20.75 222.58-22.07 222.68-23.39 223.12-24.54 223.56-25.68 224.41-26.46 225.27-27.25 226.78-27.25L226.78-27.25Q227.61-27.25 228.2-26.71 228.78-26.17 229.15-25.39 229.51-24.61 229.71-23.73 229.9-22.85 229.95-22.12L229.95-22.12Q231.12-24.02 232.59-25.22 234.05-26.42 236.4-26.51L236.4-26.51Q237.57-26.56 238.72-26.29 239.87-26.03 240.82-25.42 241.77-24.8 242.38-23.83 242.99-22.85 243.04-21.53L243.04-21.53Q243.14-19.97 242.11-19.14 241.09-18.31 239.62-18.26Z" opacity="1" transform="matrix(1,0,0,1,0,0)" fill="#ea3c12" class="undefined-text-0" data-fill-palette-color="primary" id="text-0"></path></svg></g></svg></g><g transform="matrix(1,0,0,1,0,63.08837245900658)"><svg viewBox="0 0 316.416 40.831387363888034" height="40.831387363888034" width="316.416"><g transform="matrix(1,0,0,1,0,0)"><svg width="316.416" viewBox="3 -36.75 370.42 47.8" height="40.831387363888034" data-palette-color="#3d9970"><path d="M23.05 0.25L23.05 0.25Q22.4 0.25 21.78-0.15 21.15-0.55 20.8-1.3L20.8-1.3 13.7-15.1 9.5-15.1 9.5-2.05Q9.5-1.05 8.5-0.53 7.5 0 6.25 0L6.25 0Q5.05 0 4.03-0.53 3-1.05 3-2.05L3-2.05 3-34.55Q3-35.35 3.58-35.95 4.15-36.55 5.1-36.55L5.1-36.55 15-36.55Q18.3-36.55 20.98-35.6 23.65-34.65 25.25-32.38 26.85-30.1 26.85-26.1L26.85-26.1Q26.85-23.2 26-21.18 25.15-19.15 23.68-17.93 22.2-16.7 20.3-16.1L20.3-16.1 26.9-3.95Q27-3.75 27.05-3.53 27.1-3.3 27.1-3.15L27.1-3.15Q27.1-2.35 26.5-1.55 25.9-0.75 24.98-0.25 24.05 0.25 23.05 0.25ZM9.5-30.85L9.5-20.2 15-20.2Q17.45-20.2 18.9-21.4 20.35-22.6 20.35-25.5L20.35-25.5Q20.35-28.5 18.9-29.68 17.45-30.85 15-30.85L15-30.85 9.5-30.85ZM71.35 0.45L71.35 0.45Q67.8 0.45 65.07-0.83 62.35-2.1 60.8-4.42 59.25-6.75 59.25-9.8L59.25-9.8 59.25-14.05Q59.25-16.75 60.72-19.03 62.2-21.3 64.67-22.68 67.15-24.05 70.2-24.05L70.2-24.05Q73-24.05 75.32-22.85 77.65-21.65 79.1-19.55 80.55-17.45 80.55-14.65L80.55-14.65Q80.55-12.5 79.85-11.58 79.15-10.65 78.07-10.43 77-10.2 75.85-10.2L75.85-10.2 65.7-10.2 65.7-9.45Q65.7-7.3 67.32-5.98 68.95-4.65 71.55-4.65L71.55-4.65Q73.2-4.65 74.3-5.15 75.4-5.65 76.2-6.1 77-6.55 77.7-6.55L77.7-6.55Q78.45-6.55 79-6.05 79.55-5.55 79.85-4.88 80.15-4.2 80.15-3.7L80.15-3.7Q80.15-2.85 79.07-1.88 78-0.9 76.02-0.23 74.05 0.45 71.35 0.45ZM65.7-15.4L65.7-14 73-14Q73.85-14 74.17-14.28 74.5-14.55 74.5-15.35L74.5-15.35Q74.5-16.5 73.9-17.4 73.3-18.3 72.3-18.8 71.3-19.3 70.1-19.3L70.1-19.3Q68.95-19.3 67.95-18.82 66.95-18.35 66.32-17.48 65.7-16.6 65.7-15.4L65.7-15.4ZM124.19 0.45L124.19 0.45Q120.39 0.45 117.99-0.9 115.59-2.25 114.44-4.58 113.29-6.9 113.29-9.8L113.29-9.8 113.29-13.8Q113.29-16.7 114.42-19.03 115.54-21.35 117.97-22.7 120.39-24.05 124.09-24.05L124.09-24.05Q126.44-24.05 128.24-23.5 130.04-22.95 131.09-22.05 132.14-21.15 132.14-20.15L132.14-20.15Q132.14-19.6 131.82-18.85 131.49-18.1 130.92-17.55 130.34-17 129.59-17L129.59-17Q129.04-17 128.47-17.35 127.89-17.7 126.99-18.05 126.09-18.4 124.59-18.4L124.59-18.4Q122.04-18.4 120.89-17.18 119.74-15.95 119.74-13.8L119.74-13.8 119.74-9.8Q119.74-7.65 120.89-6.43 122.04-5.2 124.64-5.2L124.64-5.2Q126.19-5.2 127.04-5.6 127.89-6 128.47-6.35 129.04-6.7 129.64-6.7L129.64-6.7Q130.54-6.7 131.17-6.2 131.79-5.7 132.12-4.98 132.44-4.25 132.44-3.65L132.44-3.65Q132.44-2.65 131.37-1.7 130.29-0.75 128.42-0.15 126.54 0.45 124.19 0.45ZM168.74 0L168.74 0Q167.34 0 166.44-0.65 165.54-1.3 165.54-2.05L165.54-2.05 165.54-21.75Q165.54-22.65 166.44-23.2 167.34-23.75 168.74-23.75L168.74-23.75Q170.09-23.75 171.04-23.2 171.99-22.65 171.99-21.75L171.99-21.75 171.99-2.05Q171.99-1.3 171.04-0.65 170.09 0 168.74 0ZM168.74-29.05L168.74-29.05Q167.29-29.05 166.24-30.03 165.19-31 165.19-32.2L165.19-32.2Q165.19-33.5 166.24-34.43 167.29-35.35 168.74-35.35L168.74-35.35Q170.19-35.35 171.21-34.43 172.24-33.5 172.24-32.2L172.24-32.2Q172.24-31 171.21-30.03 170.19-29.05 168.74-29.05ZM209.88 11.05L209.88 11.05Q208.53 11.05 207.63 10.4 206.73 9.75 206.73 9L206.73 9 206.73-21.75Q206.73-22.65 207.63-23.2 208.53-23.75 209.83-23.75L209.83-23.75Q211.13-23.75 211.96-23.2 212.78-22.65 212.78-21.75L212.78-21.75 212.78-20.25Q213.63-21.7 215.38-22.88 217.13-24.05 219.53-24.05L219.53-24.05Q222.03-24.05 224.08-22.68 226.13-21.3 227.31-19 228.48-16.7 228.48-13.9L228.48-13.9 228.48-9.8Q228.48-7.15 227.28-4.8 226.08-2.45 224.08-1 222.08 0.45 219.73 0.45L219.73 0.45Q217.53 0.45 215.73-0.75 213.93-1.95 213.18-3.5L213.18-3.5 213.18 9Q213.18 9.75 212.23 10.4 211.28 11.05 209.88 11.05ZM217.63-5.2L217.63-5.2Q218.83-5.2 219.81-5.88 220.78-6.55 221.41-7.6 222.03-8.65 222.03-9.8L222.03-9.8 222.03-13.9Q222.03-15.05 221.43-16.05 220.83-17.05 219.81-17.73 218.78-18.4 217.53-18.4L217.53-18.4Q216.43-18.4 215.46-17.85 214.48-17.3 213.83-16.3 213.18-15.3 213.18-13.9L213.18-13.9 213.18-8.9Q213.18-8.4 213.76-7.53 214.33-6.65 215.33-5.93 216.33-5.2 217.63-5.2ZM273.58 0.45L273.58 0.45Q270.03 0.45 267.3-0.83 264.58-2.1 263.03-4.42 261.48-6.75 261.48-9.8L261.48-9.8 261.48-14.05Q261.48-16.75 262.95-19.03 264.43-21.3 266.9-22.68 269.38-24.05 272.43-24.05L272.43-24.05Q275.23-24.05 277.55-22.85 279.88-21.65 281.33-19.55 282.78-17.45 282.78-14.65L282.78-14.65Q282.78-12.5 282.08-11.58 281.38-10.65 280.3-10.43 279.23-10.2 278.08-10.2L278.08-10.2 267.93-10.2 267.93-9.45Q267.93-7.3 269.55-5.98 271.18-4.65 273.78-4.65L273.78-4.65Q275.43-4.65 276.53-5.15 277.63-5.65 278.43-6.1 279.23-6.55 279.93-6.55L279.93-6.55Q280.68-6.55 281.23-6.05 281.78-5.55 282.08-4.88 282.38-4.2 282.38-3.7L282.38-3.7Q282.38-2.85 281.3-1.88 280.23-0.9 278.25-0.23 276.28 0.45 273.58 0.45ZM267.93-15.4L267.93-14 275.23-14Q276.08-14 276.4-14.28 276.73-14.55 276.73-15.35L276.73-15.35Q276.73-16.5 276.13-17.4 275.53-18.3 274.53-18.8 273.53-19.3 272.33-19.3L272.33-19.3Q271.18-19.3 270.18-18.82 269.18-18.35 268.55-17.48 267.93-16.6 267.93-15.4L267.93-15.4ZM324.12 0.45L324.12 0.45Q321.62 0.45 319.55-0.18 317.47-0.8 316.3-1.8 315.12-2.8 315.12-3.85L315.12-3.85Q315.12-4.35 315.4-5.03 315.67-5.7 316.15-6.2 316.62-6.7 317.27-6.7L317.27-6.7Q317.97-6.7 318.75-6.13 319.52-5.55 320.7-5 321.87-4.45 323.97-4.45L323.97-4.45Q326.22-4.45 326.95-5.15 327.67-5.85 327.67-6.6L327.67-6.6Q327.67-7.7 326.8-8.3 325.92-8.9 324.57-9.3 323.22-9.7 321.7-10.13 320.17-10.55 318.82-11.28 317.47-12 316.62-13.28 315.77-14.55 315.77-16.6L315.77-16.6Q315.77-18.4 316.62-20.1 317.47-21.8 319.42-22.93 321.37-24.05 324.72-24.05L324.72-24.05Q326.77-24.05 328.6-23.63 330.42-23.2 331.57-22.45 332.72-21.7 332.72-20.8L332.72-20.8Q332.72-20.35 332.42-19.63 332.12-18.9 331.6-18.3 331.07-17.7 330.32-17.7L330.32-17.7Q329.77-17.7 329-18.07 328.22-18.45 327.22-18.8 326.22-19.15 324.82-19.15L324.82-19.15Q323.57-19.15 322.82-18.8 322.07-18.45 321.72-17.95 321.37-17.45 321.37-16.9L321.37-16.9Q321.37-16 322.22-15.5 323.07-15 324.45-14.65 325.82-14.3 327.35-13.88 328.87-13.45 330.25-12.63 331.62-11.8 332.47-10.45 333.32-9.1 333.32-6.85L333.32-6.85Q333.32-3.55 330.95-1.55 328.57 0.45 324.12 0.45ZM370.02-10.1L370.02-10.1Q369.02-10.1 368.27-10.55 367.52-11 367.52-12L367.52-12Q367.52-15.3 367.37-19.15 367.22-23 367.04-26.85 366.87-30.7 366.87-34L366.87-34Q366.87-35.3 367.77-36.02 368.67-36.75 370.02-36.75L370.02-36.75Q371.27-36.75 372.19-36.02 373.12-35.3 373.12-34L373.12-34Q373.12-30.7 372.97-26.85 372.82-23 372.64-19.15 372.47-15.3 372.47-12L372.47-12Q372.47-11 371.62-10.55 370.77-10.1 370.02-10.1ZM370.07 0.3L370.07 0.3Q368.62 0.3 367.64-0.73 366.67-1.75 366.67-3.1L366.67-3.1Q366.67-4.5 367.64-5.5 368.62-6.5 370.07-6.5L370.07-6.5Q371.42-6.5 372.42-5.5 373.42-4.5 373.42-3.1L373.42-3.1Q373.42-1.75 372.42-0.73 371.42 0.3 370.07 0.3Z" opacity="1" transform="matrix(1,0,0,1,0,0)" fill="#3d9970" class="undefined-text-1" data-fill-palette-color="secondary" id="text-1"></path></svg></g></svg></g></svg></g></svg></g></svg></g></svg></g></svg></g><g mask="url(#85319582-f5f0-4f6b-a504-5c53edbfd550)"><g transform="matrix(4.6943503149350025, 0, 0, 4.6943503149350025, 46.543240480156186, 0.9999999999999858)"><svg xmlns="http://www.w3.org/2000/svg" xmlns:xlink="http://www.w3.org/1999/xlink" version="1.1" x="0" y="0" viewBox="17.037 24.562 64.42500000000001 52.233000000000004" enable-background="new 0 0 100 100" xml:space="preserve" height="52.233000000000004" width="64.42500000000001" class="icon-none" data-fill-palette-color="accent" id="none"><path d="M81.462 50.68c0 3.245-2.579 5.877-5.762 5.877H22.799c-3.184 0-5.762-2.632-5.762-5.877l0 0c0-3.25 2.578-5.881 5.762-5.881H75.7C78.883 44.799 81.462 47.43 81.462 50.68L81.462 50.68z" fill="#ea9937" data-fill-palette-color="accent"></path><path d="M79.334 58.905c-0.352 9.929-10.188 17.89-22.278 17.89H41.443c-12.09 0-21.926-7.961-22.279-17.89H79.334z" fill="#ea9937" data-fill-palette-color="accent"></path><path d="M57.056 24.562H41.443c-12.09 0-21.926 7.96-22.279 17.89h60.17C78.982 32.521 69.146 24.562 57.056 24.562zM27.906 38.511c-0.496 0-0.898-0.402-0.898-0.898s0.402-0.898 0.898-0.898 0.898 0.402 0.898 0.898S28.402 38.511 27.906 38.511zM35.077 35.782c-0.497 0-0.899-0.401-0.899-0.897s0.402-0.898 0.899-0.898c0.496 0 0.897 0.402 0.897 0.898S35.573 35.782 35.077 35.782zM41.75 29.912c0-0.496 0.4-0.897 0.897-0.897s0.899 0.401 0.899 0.897c0 0.497-0.402 0.898-0.899 0.898S41.75 30.409 41.75 29.912zM43.547 38.511c-0.497 0-0.899-0.402-0.899-0.898s0.402-0.898 0.899-0.898c0.494 0 0.897 0.402 0.897 0.898S44.041 38.511 43.547 38.511zM51.116 34.404c-0.497 0-0.898-0.4-0.898-0.897 0-0.496 0.401-0.898 0.898-0.898 0.495 0 0.897 0.402 0.897 0.898C52.014 34.004 51.611 34.404 51.116 34.404zM56.302 38.511c-0.496 0-0.898-0.402-0.898-0.898s0.402-0.898 0.898-0.898c0.495 0 0.898 0.402 0.898 0.898S56.797 38.511 56.302 38.511zM57.2 29.912c-0.496 0-0.898-0.4-0.898-0.897 0-0.496 0.402-0.897 0.898-0.897 0.495 0 0.899 0.401 0.899 0.897C58.1 29.512 57.695 29.912 57.2 29.912zM65.874 38.511c-0.497 0-0.899-0.402-0.899-0.898s0.402-0.898 0.899-0.898c0.495 0 0.897 0.402 0.897 0.898S66.369 38.511 65.874 38.511zM71.029 35.782c-0.496 0-0.899-0.401-0.899-0.897s0.403-0.898 0.899-0.898 0.898 0.402 0.898 0.898S71.525 35.782 71.029 35.782z" fill="#ea9937" data-fill-palette-color="accent"></path></svg></g></g></svg></g><defs><mask id="85319582-f5f0-4f6b-a504-5c53edbfd550"><rect width="640" height="400" fill="white"></rect><rect width="348.05760000000004" height="128.0180363311877" fill="black" x="145.97119999999998" y="135.99098183440617" id="transform-me" transform="matrix(1,0,0,1,-122.24000000000001,-76.4)"></rect></mask></defs></svg><rect width="395.52" height="247.2" fill="none" stroke="none" visibility="hidden"></rect></g></svg></g></svg>