<svg xmlns="http://www.w3.org/2000/svg" version="1.1" xmlns:xlink="http://www.w3.org/1999/xlink" xmlns:svgjs="http://svgjs.dev/svgjs" width="2000" height="1247" viewBox="0 0 2000 1247"><g transform="matrix(1,0,0,1,-1.2121212121212466,0.504858299595071)"><svg viewBox="0 0 396 247" data-background-color="#ffffff" preserveAspectRatio="xMidYMid meet" height="1247" width="2000" xmlns="http://www.w3.org/2000/svg" xmlns:xlink="http://www.w3.org/1999/xlink"><g id="tight-bounds" transform="matrix(1,0,0,1,0.2400000000000091,-0.09999999999999432)"><svg viewBox="0 0 395.52 247.2" height="247.2" width="395.52"><g><svg></svg></g><g><svg viewBox="0 0 395.52 247.2" height="247.2" width="395.52"><g transform="matrix(1,0,0,1,39.55199999999999,76.28469040119495)"><svg viewBox="0 0 316.416 94.63061919761007" height="94.63061919761007" width="316.416"><g><svg viewBox="0 0 316.416 94.63061919761007" height="94.63061919761007" width="316.416"><g><svg viewBox="0 0 316.416 94.63061919761007" height="94.63061919761007" width="316.416"><g><svg viewBox="0 0 316.416 94.63061919761007" height="94.63061919761007" width="316.416"><g><svg viewBox="0 0 316.416 94.63061919761007" height="94.63061919761007" width="316.416"><g><svg viewBox="0 0 316.416 51.03923420486004" height="51.03923420486004" width="316.416"><g transform="matrix(1,0,0,1,0,0)"><svg width="316.416" viewBox="1.51 -37.5 241.53884955529205 38.96" height="51.03923420486004" data-palette-color="#ea3c12"><path d="M21.39-35.25L21.39-35.25Q21.39-33.4 20.12-31.88 18.85-30.37 17.02-29.17 15.19-27.98 13.18-27.1 11.18-26.22 9.72-25.63L9.72-25.63Q9.72-24.61 9.67-23.54 9.62-22.46 9.52-21.39L9.52-21.39Q11.08-22.17 13.04-22.85 14.99-23.54 16.75-23.54L16.75-23.54Q18.16-23.54 19.07-22.95 19.97-22.36 19.97-20.9L19.97-20.9Q19.97-19.29 18.82-18.02 17.68-16.75 16.06-15.77 14.45-14.79 12.7-14.11 10.94-13.43 9.72-13.04L9.72-13.04Q9.72-11.43 9.67-9.84 9.62-8.25 9.52-6.69L9.52-6.69Q9.47-5.91 9.35-4.74 9.23-3.56 8.86-2.47 8.5-1.37 7.81-0.56 7.13 0.24 6.05 0.24L6.05 0.24Q5.03 0.24 4.3-0.76 3.56-1.76 3.05-3.32 2.54-4.88 2.22-6.81 1.9-8.74 1.73-10.6 1.56-12.45 1.54-14.01 1.51-15.58 1.51-16.41L1.51-16.41Q1.51-17.04 1.54-18.29 1.56-19.53 1.59-21.04 1.61-22.56 1.68-24.22 1.76-25.88 1.86-27.37 1.95-28.86 2.12-30 2.29-31.15 2.54-31.69L2.54-31.69Q3.08-32.76 5.1-33.81 7.13-34.86 9.62-35.67 12.11-36.47 14.48-36.99 16.85-37.5 18.12-37.5L18.12-37.5Q18.7-37.5 19.26-37.43 19.82-37.35 20.31-37.11 20.8-36.87 21.09-36.43 21.39-35.99 21.39-35.25ZM30.76-29.59L30.76-29.59Q30.76-26.95 30.54-24.29 30.32-21.63 30.32-18.95L30.32-18.95Q30.32-15.48 30.54-12.01 30.76-8.54 30.76-5.03L30.76-5.03Q30.76-4.15 30.66-3.05 30.56-1.95 30.2-1.03 29.83-0.1 29.1 0.54 28.37 1.17 27.15 1.17L27.15 1.17Q25.97 1.17 25.12 0.02 24.27-1.12 23.7-2.91 23.14-4.69 22.78-6.88 22.41-9.08 22.24-11.16 22.07-13.23 21.99-14.97 21.92-16.7 21.92-17.53L21.92-17.53Q21.92-18.46 21.99-20.21 22.07-21.97 22.31-24.02 22.56-26.07 22.97-28.2 23.39-30.32 24.07-32.06 24.75-33.79 25.71-34.89 26.66-35.99 27.98-35.99L27.98-35.99Q29.05-35.99 29.61-35.28 30.17-34.57 30.42-33.57 30.66-32.57 30.71-31.47 30.76-30.37 30.76-29.59ZM55.22-6.88L55.22-6.88Q55.22-6.01 55.15-4.59 55.07-3.17 54.73-1.83 54.39-0.49 53.66 0.49 52.92 1.46 51.61 1.46L51.61 1.46Q49.8 1.46 48.82 0.29 47.85-0.88 47.9-2.64L47.9-2.64Q46.33-1.27 44.36-0.49 42.38 0.29 40.33 0.29L40.33 0.29Q38.91 0.29 37.64-0.39 36.37-1.07 35.4-2.15 34.42-3.22 33.83-4.57 33.25-5.91 33.25-7.23L33.25-7.23Q33.25-9.57 34.69-11.33 36.13-13.09 38.23-14.33 40.33-15.58 42.7-16.31 45.06-17.04 46.92-17.29L46.92-17.29Q46.92-17.53 46.94-17.72 46.97-17.92 46.97-18.16L46.97-18.16Q46.97-19.68 46.14-20.61 45.31-21.53 43.79-21.53L43.79-21.53Q42.57-21.53 41.69-21.12 40.82-20.7 40.03-20.19 39.25-19.68 38.47-19.26 37.69-18.85 36.71-18.85L36.71-18.85Q35.64-18.85 34.88-19.53 34.13-20.21 34.13-21.29L34.13-21.29Q34.13-22.9 35.08-24.22 36.03-25.54 37.47-26.44 38.91-27.34 40.6-27.86 42.28-28.37 43.7-28.37L43.7-28.37Q45.01-28.37 46.33-28.05 47.65-27.73 48.82-27.08 50-26.42 50.95-25.46 51.9-24.51 52.49-23.24L52.49-23.24Q53.36-21.44 53.9-19.41 54.44-17.38 54.73-15.26 55.02-13.13 55.12-11.01 55.22-8.89 55.22-6.88ZM47.41-8.45L47.41-8.45 47.26-11.77Q47.16-11.77 47.07-11.79 46.97-11.82 46.87-11.82L46.87-11.82Q46.24-11.82 45.28-11.5 44.33-11.18 43.45-10.62 42.57-10.06 41.96-9.38 41.35-8.69 41.35-7.96L41.35-7.96Q41.35-7.28 41.84-7.03 42.33-6.79 42.96-6.79L42.96-6.79Q44.04-6.79 45.26-7.35 46.48-7.91 47.41-8.45ZM79.19-17.48L79.19-17.48Q77.92-14.11 76.41-10.45 74.89-6.79 73.14-3.61L73.14-3.61Q72.06-1.66 70.74-0.37 69.43 0.93 67.72 0.93L67.72 0.93Q66.35 0.93 65.06-0.46 63.76-1.86 62.66-3.78 61.56-5.71 60.76-7.69 59.95-9.67 59.56-10.84L59.56-10.84Q59.17-12.16 58.68-13.67 58.2-15.19 57.81-16.75L57.81-16.75Q57.41-18.31 57.17-19.85 56.93-21.39 56.93-22.75L56.93-22.75Q56.93-24.66 57.61-25.88 58.29-27.1 60.3-27.1L60.3-27.1Q61.08-27.1 61.71-26.64 62.35-26.17 62.88-25.34 63.42-24.51 63.91-23.41 64.4-22.31 64.84-21L64.84-21Q65.28-19.73 65.67-18.36 66.06-16.99 66.45-15.72L66.45-15.72Q66.84-14.45 67.25-13.26 67.67-12.06 68.35-10.89L68.35-10.89Q68.69-11.77 69.13-12.89 69.57-14.01 70.09-15.28 70.6-16.55 71.18-17.9 71.77-19.24 72.45-20.51L72.45-20.51Q73.77-23.14 75.26-25 76.75-26.86 78.22-26.86L78.22-26.86Q79.58-26.86 80.17-26.03 80.75-25.2 80.75-23.88L80.75-23.88Q80.75-22.56 80.31-20.9 79.88-19.24 79.19-17.48ZM91.74 1.42L91.74 1.42Q89.25 1.42 87.39 0.1 85.54-1.22 84.27-3.27 83-5.32 82.36-7.84 81.73-10.35 81.73-12.79L81.73-12.79Q81.73-15.38 82.36-18.14 83-20.9 84.32-23.17 85.63-25.44 87.69-26.88 89.74-28.32 92.57-28.32L92.57-28.32Q95.3-28.32 97.23-26.83 99.16-25.34 100.33-23.12 101.5-20.9 101.99-18.26 102.48-15.63 102.33-13.28L102.33-13.28Q102.19-10.69 101.53-8.06 100.87-5.42 99.6-3.32 98.33-1.22 96.38 0.1 94.42 1.42 91.74 1.42ZM92.23-20.65L92.23-20.65Q91.49-20.65 90.93-19.87 90.37-19.09 90-17.97 89.64-16.85 89.44-15.6 89.25-14.36 89.25-13.43L89.25-13.43Q89.25-12.26 89.47-10.89 89.69-9.52 90.08-8.37 90.47-7.23 91.03-6.47 91.59-5.71 92.32-5.71L92.32-5.71Q93.11-5.71 93.67-6.45 94.23-7.18 94.57-8.3 94.91-9.42 95.06-10.77 95.2-12.11 95.2-13.28L95.2-13.28Q95.2-14.36 95.01-15.65 94.81-16.94 94.45-18.07 94.08-19.19 93.52-19.92 92.96-20.65 92.23-20.65ZM121.76-18.26L121.76-18.26Q121.08-18.21 120.59-18.38 120.1-18.55 119.62-18.75L119.62-18.75Q119.18-18.95 118.74-19.12 118.3-19.29 117.76-19.24L117.76-19.24Q116.78-19.19 116.03-18.7 115.27-18.21 114.66-17.48 114.05-16.75 113.61-15.84 113.17-14.94 112.93-14.06L112.93-14.06Q112.78-13.48 112.71-12.28 112.63-11.08 112.63-9.72L112.63-9.72Q112.59-8.3 112.59-7.03 112.59-5.76 112.49-5.03L112.49-5.03Q112.44-4.25 112.24-3.2 112.05-2.15 111.63-1.22 111.22-0.29 110.53 0.34 109.85 0.98 108.78 0.98L108.78 0.98Q107.95 0.98 107.34 0.49 106.73 0 106.31-0.81 105.9-1.61 105.63-2.69 105.36-3.76 105.21-4.88L105.21-4.88Q105.07-6.05 104.99-7.23 104.92-8.4 104.89-9.45 104.87-10.5 104.89-11.38 104.92-12.26 104.92-12.79L104.92-12.79Q104.87-14.5 104.75-16.24 104.63-17.97 104.63-19.68L104.63-19.68Q104.63-20.75 104.72-22.07 104.82-23.39 105.26-24.54 105.7-25.68 106.55-26.46 107.41-27.25 108.92-27.25L108.92-27.25Q109.75-27.25 110.34-26.71 110.93-26.17 111.29-25.39 111.66-24.61 111.85-23.73 112.05-22.85 112.1-22.12L112.1-22.12Q113.27-24.02 114.73-25.22 116.2-26.42 118.54-26.51L118.54-26.51Q119.71-26.56 120.86-26.29 122.01-26.03 122.96-25.42 123.91-24.8 124.52-23.83 125.13-22.85 125.18-21.53L125.18-21.53Q125.28-19.97 124.26-19.14 123.23-18.31 121.76-18.26ZM162.82-21.97L162.82-21.97Q162.82-17.68 161.07-13.7 159.31-9.72 156.35-6.64 153.4-3.56 149.47-1.73 145.54 0.1 141.19 0.1L141.19 0.1 141.1 0.1Q140.22 0.1 139.66-0.71 139.09-1.51 138.7-2.73 138.31-3.96 138.12-5.47 137.92-6.98 137.82-8.42 137.73-9.86 137.73-11.01 137.73-12.16 137.73-12.74L137.73-12.74Q137.73-14.4 137.78-16.04 137.82-17.68 137.92-19.34L137.92-19.34Q137.92-19.87 138-20.92 138.07-21.97 138.17-23.29 138.26-24.61 138.41-26.05 138.56-27.49 138.73-28.74 138.9-29.98 139.07-30.93 139.24-31.88 139.48-32.23L139.48-32.23Q140.12-33.3 141.44-34.13 142.76-34.96 144.29-35.5 145.83-36.04 147.42-36.3 149.01-36.57 150.18-36.57L150.18-36.57Q153.4-36.57 155.77-35.38 158.14-34.18 159.72-32.15 161.31-30.13 162.07-27.49 162.82-24.85 162.82-21.97ZM154.62-20.56L154.62-20.56Q154.62-21.63 154.23-22.75 153.84-23.88 153.13-24.8 152.42-25.73 151.42-26.29 150.42-26.86 149.2-26.86L149.2-26.86Q148.18-26.86 147.1-26.37L147.1-26.37Q146.86-26.22 146.66-25.46 146.47-24.71 146.34-23.63 146.22-22.56 146.13-21.29 146.03-20.02 146-18.87 145.98-17.72 145.95-16.85 145.93-15.97 145.93-15.67L145.93-15.67Q145.93-15.19 145.93-14.23 145.93-13.28 146-12.35 146.08-11.43 146.17-10.74 146.27-10.06 146.52-10.06L146.52-10.06Q147.98-10.06 149.42-11.21 150.86-12.35 152.03-14.01 153.21-15.67 153.91-17.48 154.62-19.29 154.62-20.56ZM173.08-34.08L173.08-34.08Q173.08-33.4 172.71-32.86 172.34-32.32 171.76-31.91 171.17-31.49 170.49-31.27 169.8-31.05 169.22-31.05L169.22-31.05Q168.24-31.05 167.51-31.54 166.78-32.03 166.78-33.06L166.78-33.06Q166.78-33.79 167.14-34.35 167.51-34.91 168.05-35.28 168.58-35.64 169.27-35.84 169.95-36.04 170.59-36.04L170.59-36.04Q171.51-36.04 172.29-35.6 173.08-35.16 173.08-34.08ZM173.47-17.48L173.47-17.48Q173.47-16.8 173.47-16.04 173.47-15.28 173.42-14.6L173.42-14.6Q173.37-13.77 173.37-12.38 173.37-10.99 173.27-9.38 173.17-7.76 172.95-6.1 172.73-4.44 172.25-3.08 171.76-1.71 170.95-0.85 170.15 0 168.93 0.05L168.93 0.05Q168 0.1 167.36-0.68 166.73-1.46 166.31-2.71 165.9-3.96 165.7-5.49 165.51-7.03 165.41-8.47 165.31-9.91 165.31-11.13 165.31-12.35 165.31-12.94L165.31-12.94Q165.31-13.72 165.31-15.16 165.31-16.6 165.41-18.26 165.51-19.92 165.78-21.63 166.04-23.34 166.56-24.76 167.07-26.17 167.9-27.05 168.73-27.93 170-27.93L170-27.93Q171.32-27.93 172-26.61 172.69-25.29 173.03-23.54 173.37-21.78 173.42-20.04 173.47-18.31 173.47-17.48ZM190.8 1.37L190.8 1.37Q189.97 1.37 189.48 0.61 188.99-0.15 188.75-1.12 188.5-2.1 188.43-3.1 188.36-4.1 188.36-4.64L188.36-4.64Q188.36-6.1 188.53-7.57 188.7-9.03 188.92-10.5 189.14-11.96 189.31-13.43 189.48-14.89 189.48-16.36L189.48-16.36Q189.48-16.94 189.43-17.63 189.38-18.31 189.21-18.92 189.04-19.53 188.65-19.92 188.26-20.31 187.62-20.31L187.62-20.31Q187.18-20.31 186.65-19.6 186.11-18.9 185.65-17.99 185.18-17.09 184.87-16.19 184.55-15.28 184.55-14.84L184.55-14.84Q184.55-13.77 184.57-12.67 184.6-11.57 184.6-10.45L184.6-10.45 184.6-7.62Q184.55-6.74 184.45-5.81 184.35-4.88 184.16-4L184.16-4Q184.01-3.13 183.72-2.32 183.42-1.51 182.96-0.9 182.5-0.29 181.86 0.1 181.23 0.49 180.35 0.49L180.35 0.49Q179.37 0.49 178.74-0.15 178.1-0.78 177.71-1.78 177.32-2.78 177.15-4.03 176.98-5.27 176.91-6.47 176.83-7.67 176.86-8.67 176.88-9.67 176.88-10.25L176.88-10.25 176.88-12.55Q176.88-14.4 176.81-16.21 176.74-18.02 176.74-19.82L176.74-19.82Q176.74-20.8 176.76-22.31 176.78-23.83 177.13-25.27 177.47-26.71 178.25-27.73 179.03-28.76 180.54-28.76L180.54-28.76Q181.23-28.76 181.76-28.32 182.3-27.88 182.72-27.25 183.13-26.61 183.4-25.88 183.67-25.15 183.82-24.61L183.82-24.61Q184.3-25.29 184.96-25.93 185.62-26.56 186.45-27.05 187.28-27.54 188.31-27.83 189.33-28.13 190.65-28.13L190.65-28.13Q193.14-28.13 194.53-26.93 195.92-25.73 196.58-23.95 197.24-22.17 197.39-20.12 197.54-18.07 197.54-16.41L197.54-16.41Q197.54-15.58 197.39-13.94 197.24-12.3 196.93-10.33 196.61-8.35 196.07-6.27 195.53-4.2 194.8-2.49 194.07-0.78 193.07 0.29 192.07 1.37 190.8 1.37ZM220.73-8.69L220.73-8.69Q220.73-7.03 219.68-5.44 218.63-3.86 217.04-2.61 215.45-1.37 213.65-0.61 211.84 0.15 210.33 0.15L210.33 0.15Q207.74 0.15 205.71-1.15 203.69-2.44 202.32-4.44 200.95-6.45 200.24-8.86 199.54-11.28 199.54-13.57L199.54-13.57Q199.54-16.02 200.22-18.8 200.9-21.58 202.29-23.93 203.69-26.27 205.81-27.83 207.93-29.39 210.86-29.39L210.86-29.39Q212.52-29.39 214.04-28.83 215.55-28.27 216.67-27.25 217.8-26.22 218.48-24.8 219.16-23.39 219.16-21.63L219.16-21.63Q219.16-19.34 218.19-17.33 217.21-15.33 215.6-13.87 213.99-12.4 211.89-11.5 209.79-10.6 207.59-10.5L207.59-10.5Q207.79-9.08 208.74-8.45 209.69-7.81 211.01-7.81L211.01-7.81Q211.99-7.81 212.91-8.3 213.84-8.79 214.72-9.4 215.6-10.01 216.45-10.5 217.31-10.99 218.19-10.99L218.19-10.99Q219.16-10.99 219.95-10.35 220.73-9.72 220.73-8.69ZM212.82-20.65L212.82-20.65Q212.82-21.29 212.48-21.97 212.13-22.66 211.4-22.66L211.4-22.66Q210.33-22.66 209.59-22.09 208.86-21.53 208.37-20.68 207.89-19.82 207.62-18.85 207.35-17.87 207.3-17.04L207.3-17.04Q207.98-17.19 208.93-17.43 209.89-17.68 210.74-18.09 211.6-18.51 212.21-19.14 212.82-19.78 212.82-20.65ZM239.62-18.26L239.62-18.26Q238.94-18.21 238.45-18.38 237.96-18.55 237.47-18.75L237.47-18.75Q237.03-18.95 236.59-19.12 236.15-19.29 235.62-19.24L235.62-19.24Q234.64-19.19 233.88-18.7 233.13-18.21 232.52-17.48 231.91-16.75 231.47-15.84 231.03-14.94 230.78-14.06L230.78-14.06Q230.64-13.48 230.56-12.28 230.49-11.08 230.49-9.72L230.49-9.72Q230.44-8.3 230.44-7.03 230.44-5.76 230.34-5.03L230.34-5.03Q230.29-4.25 230.1-3.2 229.9-2.15 229.49-1.22 229.07-0.29 228.39 0.34 227.71 0.98 226.63 0.98L226.63 0.98Q225.8 0.98 225.19 0.49 224.58 0 224.17-0.81 223.75-1.61 223.48-2.69 223.21-3.76 223.07-4.88L223.07-4.88Q222.92-6.05 222.85-7.23 222.78-8.4 222.75-9.45 222.73-10.5 222.75-11.38 222.78-12.26 222.78-12.79L222.78-12.79Q222.73-14.5 222.6-16.24 222.48-17.97 222.48-19.68L222.48-19.68Q222.48-20.75 222.58-22.07 222.68-23.39 223.12-24.54 223.56-25.68 224.41-26.46 225.27-27.25 226.78-27.25L226.78-27.25Q227.61-27.25 228.2-26.71 228.78-26.17 229.15-25.39 229.51-24.61 229.71-23.73 229.9-22.85 229.95-22.12L229.95-22.12Q231.12-24.02 232.59-25.22 234.05-26.42 236.4-26.51L236.4-26.51Q237.57-26.56 238.72-26.29 239.87-26.03 240.82-25.42 241.77-24.8 242.38-23.83 242.99-22.85 243.04-21.53L243.04-21.53Q243.14-19.97 242.11-19.14 241.09-18.31 239.62-18.26Z" opacity="1" transform="matrix(1,0,0,1,0,0)" fill="#ea3c12" class="undefined-text-0" data-fill-palette-color="primary" id="text-0"></path></svg></g></svg></g><g transform="matrix(1,0,0,1,0,63.08837245900658)"><svg viewBox="0 0 316.416 31.5422467386035" height="31.5422467386035" width="316.416"><g transform="matrix(1,0,0,1,0,0)"><svg width="316.416" viewBox="3 -36.75 479.51 47.8" height="31.5422467386035" data-palette-color="#3d9970"><path d="M23.05 0.25L23.05 0.25Q22.4 0.25 21.78-0.15 21.15-0.55 20.8-1.3L20.8-1.3 13.7-15.1 9.5-15.1 9.5-2.05Q9.5-1.05 8.5-0.53 7.5 0 6.25 0L6.25 0Q5.05 0 4.03-0.53 3-1.05 3-2.05L3-2.05 3-34.55Q3-35.35 3.58-35.95 4.15-36.55 5.1-36.55L5.1-36.55 15-36.55Q18.3-36.55 20.98-35.6 23.65-34.65 25.25-32.38 26.85-30.1 26.85-26.1L26.85-26.1Q26.85-23.2 26-21.18 25.15-19.15 23.68-17.93 22.2-16.7 20.3-16.1L20.3-16.1 26.9-3.95Q27-3.75 27.05-3.53 27.1-3.3 27.1-3.15L27.1-3.15Q27.1-2.35 26.5-1.55 25.9-0.75 24.98-0.25 24.05 0.25 23.05 0.25ZM9.5-30.85L9.5-20.2 15-20.2Q17.45-20.2 18.9-21.4 20.35-22.6 20.35-25.5L20.35-25.5Q20.35-28.5 18.9-29.68 17.45-30.85 15-30.85L15-30.85 9.5-30.85ZM86.93 0.45L86.93 0.45Q83.38 0.45 80.65-0.83 77.93-2.1 76.38-4.42 74.83-6.75 74.83-9.8L74.83-9.8 74.83-14.05Q74.83-16.75 76.3-19.03 77.78-21.3 80.25-22.68 82.73-24.05 85.78-24.05L85.78-24.05Q88.58-24.05 90.9-22.85 93.23-21.65 94.68-19.55 96.13-17.45 96.13-14.65L96.13-14.65Q96.13-12.5 95.43-11.58 94.73-10.65 93.65-10.43 92.58-10.2 91.43-10.2L91.43-10.2 81.28-10.2 81.28-9.45Q81.28-7.3 82.9-5.98 84.53-4.65 87.13-4.65L87.13-4.65Q88.78-4.65 89.88-5.15 90.98-5.65 91.78-6.1 92.58-6.55 93.28-6.55L93.28-6.55Q94.03-6.55 94.58-6.05 95.13-5.55 95.43-4.88 95.73-4.2 95.73-3.7L95.73-3.7Q95.73-2.85 94.65-1.88 93.58-0.9 91.6-0.23 89.63 0.45 86.93 0.45ZM81.28-15.4L81.28-14 88.58-14Q89.43-14 89.75-14.28 90.08-14.55 90.08-15.35L90.08-15.35Q90.08-16.5 89.48-17.4 88.88-18.3 87.88-18.8 86.88-19.3 85.68-19.3L85.68-19.3Q84.53-19.3 83.53-18.82 82.53-18.35 81.9-17.48 81.28-16.6 81.28-15.4L81.28-15.4ZM155.36 0.45L155.36 0.45Q151.56 0.45 149.16-0.9 146.76-2.25 145.61-4.58 144.46-6.9 144.46-9.8L144.46-9.8 144.46-13.8Q144.46-16.7 145.58-19.03 146.71-21.35 149.13-22.7 151.56-24.05 155.26-24.05L155.26-24.05Q157.61-24.05 159.41-23.5 161.21-22.95 162.26-22.05 163.31-21.15 163.31-20.15L163.31-20.15Q163.31-19.6 162.98-18.85 162.66-18.1 162.08-17.55 161.51-17 160.76-17L160.76-17Q160.21-17 159.63-17.35 159.06-17.7 158.16-18.05 157.26-18.4 155.76-18.4L155.76-18.4Q153.21-18.4 152.06-17.18 150.91-15.95 150.91-13.8L150.91-13.8 150.91-9.8Q150.91-7.65 152.06-6.43 153.21-5.2 155.81-5.2L155.81-5.2Q157.36-5.2 158.21-5.6 159.06-6 159.63-6.35 160.21-6.7 160.81-6.7L160.81-6.7Q161.71-6.7 162.33-6.2 162.96-5.7 163.28-4.98 163.61-4.25 163.61-3.65L163.61-3.65Q163.61-2.65 162.53-1.7 161.46-0.75 159.58-0.15 157.71 0.45 155.36 0.45ZM215.49 0L215.49 0Q214.09 0 213.19-0.65 212.29-1.3 212.29-2.05L212.29-2.05 212.29-21.75Q212.29-22.65 213.19-23.2 214.09-23.75 215.49-23.75L215.49-23.75Q216.84-23.75 217.79-23.2 218.74-22.65 218.74-21.75L218.74-21.75 218.74-2.05Q218.74-1.3 217.79-0.65 216.84 0 215.49 0ZM215.49-29.05L215.49-29.05Q214.04-29.05 212.99-30.03 211.94-31 211.94-32.2L211.94-32.2Q211.94-33.5 212.99-34.43 214.04-35.35 215.49-35.35L215.49-35.35Q216.94-35.35 217.96-34.43 218.99-33.5 218.99-32.2L218.99-32.2Q218.99-31 217.96-30.03 216.94-29.05 215.49-29.05ZM272.22 11.05L272.22 11.05Q270.87 11.05 269.97 10.4 269.07 9.75 269.07 9L269.07 9 269.07-21.75Q269.07-22.65 269.97-23.2 270.87-23.75 272.17-23.75L272.17-23.75Q273.47-23.75 274.29-23.2 275.12-22.65 275.12-21.75L275.12-21.75 275.12-20.25Q275.97-21.7 277.72-22.88 279.47-24.05 281.87-24.05L281.87-24.05Q284.37-24.05 286.42-22.68 288.47-21.3 289.64-19 290.82-16.7 290.82-13.9L290.82-13.9 290.82-9.8Q290.82-7.15 289.62-4.8 288.42-2.45 286.42-1 284.42 0.45 282.07 0.45L282.07 0.45Q279.87 0.45 278.07-0.75 276.27-1.95 275.52-3.5L275.52-3.5 275.52 9Q275.52 9.75 274.57 10.4 273.62 11.05 272.22 11.05ZM279.97-5.2L279.97-5.2Q281.17-5.2 282.14-5.88 283.12-6.55 283.74-7.6 284.37-8.65 284.37-9.8L284.37-9.8 284.37-13.9Q284.37-15.05 283.77-16.05 283.17-17.05 282.14-17.73 281.12-18.4 279.87-18.4L279.87-18.4Q278.77-18.4 277.79-17.85 276.82-17.3 276.17-16.3 275.52-15.3 275.52-13.9L275.52-13.9 275.52-8.9Q275.52-8.4 276.09-7.53 276.67-6.65 277.67-5.93 278.67-5.2 279.97-5.2ZM351.5 0.45L351.5 0.45Q347.95 0.45 345.22-0.83 342.5-2.1 340.95-4.42 339.4-6.75 339.4-9.8L339.4-9.8 339.4-14.05Q339.4-16.75 340.87-19.03 342.35-21.3 344.82-22.68 347.3-24.05 350.35-24.05L350.35-24.05Q353.15-24.05 355.47-22.85 357.8-21.65 359.25-19.55 360.7-17.45 360.7-14.65L360.7-14.65Q360.7-12.5 360-11.58 359.3-10.65 358.22-10.43 357.15-10.2 356-10.2L356-10.2 345.85-10.2 345.85-9.45Q345.85-7.3 347.47-5.98 349.1-4.65 351.7-4.65L351.7-4.65Q353.35-4.65 354.45-5.15 355.55-5.65 356.35-6.1 357.15-6.55 357.85-6.55L357.85-6.55Q358.6-6.55 359.15-6.05 359.7-5.55 360-4.88 360.3-4.2 360.3-3.7L360.3-3.7Q360.3-2.85 359.22-1.88 358.15-0.9 356.17-0.23 354.2 0.45 351.5 0.45ZM345.85-15.4L345.85-14 353.15-14Q354-14 354.32-14.28 354.65-14.55 354.65-15.35L354.65-15.35Q354.65-16.5 354.05-17.4 353.45-18.3 352.45-18.8 351.45-19.3 350.25-19.3L350.25-19.3Q349.1-19.3 348.1-18.82 347.1-18.35 346.47-17.48 345.85-16.6 345.85-15.4L345.85-15.4ZM417.63 0.45L417.63 0.45Q415.13 0.45 413.05-0.18 410.98-0.8 409.8-1.8 408.63-2.8 408.63-3.85L408.63-3.85Q408.63-4.35 408.9-5.03 409.18-5.7 409.65-6.2 410.13-6.7 410.78-6.7L410.78-6.7Q411.48-6.7 412.25-6.13 413.03-5.55 414.2-5 415.38-4.45 417.48-4.45L417.48-4.45Q419.73-4.45 420.45-5.15 421.18-5.85 421.18-6.6L421.18-6.6Q421.18-7.7 420.3-8.3 419.43-8.9 418.08-9.3 416.73-9.7 415.2-10.13 413.68-10.55 412.33-11.28 410.98-12 410.13-13.28 409.28-14.55 409.28-16.6L409.28-16.6Q409.28-18.4 410.13-20.1 410.98-21.8 412.93-22.93 414.88-24.05 418.23-24.05L418.23-24.05Q420.28-24.05 422.1-23.63 423.93-23.2 425.08-22.45 426.23-21.7 426.23-20.8L426.23-20.8Q426.23-20.35 425.93-19.63 425.63-18.9 425.1-18.3 424.58-17.7 423.83-17.7L423.83-17.7Q423.28-17.7 422.5-18.07 421.73-18.45 420.73-18.8 419.73-19.15 418.33-19.15L418.33-19.15Q417.08-19.15 416.33-18.8 415.58-18.45 415.23-17.95 414.88-17.45 414.88-16.9L414.88-16.9Q414.88-16 415.73-15.5 416.58-15 417.95-14.65 419.33-14.3 420.85-13.88 422.38-13.45 423.75-12.63 425.13-11.8 425.98-10.45 426.83-9.1 426.83-6.85L426.83-6.85Q426.83-3.55 424.45-1.55 422.08 0.45 417.63 0.45ZM479.11-10.1L479.11-10.1Q478.11-10.1 477.36-10.55 476.61-11 476.61-12L476.61-12Q476.61-15.3 476.46-19.15 476.31-23 476.13-26.85 475.96-30.7 475.96-34L475.96-34Q475.96-35.3 476.86-36.02 477.76-36.75 479.11-36.75L479.11-36.75Q480.36-36.75 481.28-36.02 482.21-35.3 482.21-34L482.21-34Q482.21-30.7 482.06-26.85 481.91-23 481.73-19.15 481.56-15.3 481.56-12L481.56-12Q481.56-11 480.71-10.55 479.86-10.1 479.11-10.1ZM479.16 0.3L479.16 0.3Q477.71 0.3 476.73-0.73 475.76-1.75 475.76-3.1L475.76-3.1Q475.76-4.5 476.73-5.5 477.71-6.5 479.16-6.5L479.16-6.5Q480.51-6.5 481.51-5.5 482.51-4.5 482.51-3.1L482.51-3.1Q482.51-1.75 481.51-0.73 480.51 0.3 479.16 0.3Z" opacity="1" transform="matrix(1,0,0,1,0,0)" fill="#3d9970" class="undefined-text-1" data-fill-palette-color="secondary" id="text-1"></path></svg></g></svg></g></svg></g></svg></g></svg></g></svg></g></svg></g><g mask="url(#55f5c877-6bfa-42c8-8ae5-aa53176beca9)"><g transform="matrix(3.0184777122597954, 0, 0, 3.0184777122597954, 48.22310443526143, 1)"><svg xmlns="http://www.w3.org/2000/svg" xmlns:xlink="http://www.w3.org/1999/xlink" version="1.1" x="0" y="0" viewBox="0.32699999999999996 10.197 99.081000305142 81.233" enable-background="new 0 0 100 100" xml:space="preserve" height="81.233" width="99.081000305142" class="icon-none" data-fill-palette-color="accent" id="none"><g fill="#ea9937" data-fill-palette-color="accent"><path fill="#ea9937" d="M3.029 79.361c0 6.666 5.404 12.069 12.07 12.069h69.537c6.666 0 12.07-5.403 12.07-12.069v-2.997H3.029V79.361z" data-fill-palette-color="accent"></path><path fill="#ea9937" d="M96.706 30.456c0-6.666-5.24-20.259-47.657-20.259-42.417 0-46.02 13.593-46.02 20.259v2.997h93.677V30.456zM13.812 23.649c-1.25 0.395-2.364 0.4-2.487 0.013-0.122-0.388 0.792-1.022 2.042-1.418 1.251-0.395 2.364-0.401 2.487-0.013C15.977 22.62 15.062 23.254 13.812 23.649zM22.431 27.884c-1.305 0.137-2.396-0.081-2.438-0.486-0.042-0.404 0.98-0.843 2.285-0.979 1.304-0.137 2.396 0.081 2.438 0.486C24.759 27.309 23.735 27.748 22.431 27.884zM25.905 19.008c-1.29-0.238-2.275-0.755-2.202-1.155 0.074-0.4 1.179-0.533 2.469-0.295 1.29 0.237 2.276 0.754 2.202 1.155C28.3 19.113 27.195 19.246 25.905 19.008zM36.005 25.292c-1.311-0.042-2.363-0.405-2.35-0.812 0.013-0.407 1.086-0.703 2.396-0.662 1.311 0.042 2.363 0.405 2.35 0.812C38.389 25.037 37.315 25.333 36.005 25.292zM40.034 18.325c-1.276 0.303-2.386 0.228-2.481-0.168-0.093-0.396 0.864-0.963 2.141-1.266 1.275-0.303 2.386-0.228 2.48 0.167C42.268 17.455 41.31 18.022 40.034 18.325zM45.347 28.504c-1.299 0.18-2.397 0-2.454-0.403-0.056-0.404 0.952-0.877 2.251-1.057 1.298-0.181 2.397 0 2.454 0.404C47.654 27.851 46.646 28.324 45.347 28.504zM51.327 15.846c-1.273-0.318-2.224-0.895-2.125-1.29 0.098-0.395 1.209-0.458 2.482-0.14 1.271 0.317 2.223 0.895 2.125 1.29C53.712 16.1 52.601 16.164 51.327 15.846zM54.827 22.537c-1.268-0.344-2.205-0.942-2.1-1.335 0.107-0.393 1.221-0.432 2.486-0.087 1.266 0.344 2.203 0.941 2.098 1.334C57.204 22.841 56.093 22.881 54.827 22.537zM60.841 27.511c-1.312 0-2.375-0.331-2.375-0.737s1.062-0.737 2.375-0.737 2.375 0.331 2.375 0.737S62.153 27.511 60.841 27.511zM61.876 16.715c-1.285-0.259-2.262-0.793-2.182-1.191 0.08-0.4 1.188-0.512 2.473-0.253 1.287 0.259 2.264 0.793 2.182 1.191C64.269 16.861 63.163 16.975 61.876 16.715zM68.606 21.615c-1.309 0.08-2.391-0.186-2.416-0.592-0.025-0.406 1.018-0.8 2.326-0.879 1.309-0.08 2.391 0.186 2.416 0.591C70.956 21.142 69.915 21.536 68.606 21.615zM73.163 27.501c-1.295-0.207-2.293-0.702-2.229-1.103 0.064-0.402 1.168-0.561 2.461-0.353 1.295 0.206 2.293 0.7 2.23 1.103C75.562 27.55 74.458 27.708 73.163 27.501zM78.583 20.032c-1.307 0.09-2.391-0.165-2.42-0.571-0.027-0.407 1.012-0.809 2.318-0.9 1.309-0.09 2.393 0.166 2.42 0.572C80.931 19.538 79.892 19.94 78.583 20.032zM85.651 26.691c-1.312 0-2.375-0.329-2.375-0.737 0-0.407 1.062-0.737 2.375-0.737 1.311 0 2.375 0.33 2.375 0.737C88.026 26.362 86.962 26.691 85.651 26.691z" data-fill-palette-color="accent"></path><rect x="3.029" y="49.506" fill="#ea9937" width="93.677" height="10.396" data-fill-palette-color="accent"></rect><path fill="#ea9937" d="M93.923 62.279H5.813c-3.03 0-5.486 2.456-5.486 5.487 0 3.029 2.457 5.485 5.486 5.485h88.109c3.029 0 5.486-2.456 5.486-5.485C99.409 64.735 96.952 62.279 93.923 62.279z" data-fill-palette-color="accent"></path><path fill="#ea9937" d="M5.813 46.717h88.109c3.029 0 5.486-2.455 5.486-5.486 0-3.03-2.457-5.485-5.486-5.485H5.813c-3.03 0-5.486 2.456-5.486 5.485C0.327 44.263 2.784 46.717 5.813 46.717z" data-fill-palette-color="accent"></path></g></svg></g></g></svg></g><defs><mask id="55f5c877-6bfa-42c8-8ae5-aa53176beca9"><rect width="640" height="400" fill="white"></rect><rect width="348.05760000000004" height="118.72889570590314" fill="black" x="145.97119999999998" y="140.63555214704843" id="transform-me" transform="matrix(1,0,0,1,-122.24000000000001,-76.4)"></rect></mask></defs></svg><rect width="395.52" height="247.2" fill="none" stroke="none" visibility="hidden"></rect></g></svg></g></svg>